  0
SECTION
  2
HEADER
  9
$ACADVER
  1
AC1027
  9
$ACADMAINTVER
 70
105
  9
$DWGCODEPAGE
  3
ANSI_1252
  9
$LASTSAVEDBY
  1
ezdxf
  9
$REQUIREDVERSIONS
160
0
  9
$INSBASE
 10
0.0
 20
0.0
 30
0.0
  9
$EXTMIN
 10
1e+20
 20
1e+20
 30
1e+20
  9
$EXTMAX
 10
-1e+20
 20
-1e+20
 30
-1e+20
  9
$LIMMIN
 10
0.0
 20
0.0
  9
$LIMMAX
 10
420.0
 20
297.0
  9
$ORTHOMODE
 70
0
  9
$REGENMODE
 70
1
  9
$FILLMODE
 70
1
  9
$QTEXTMODE
 70
0
  9
$MIRRTEXT
 70
1
  9
$LTSCALE
 40
1.0
  9
$ATTMODE
 70
1
  9
$TEXTSIZE
 40
2.5
  9
$TRACEWID
 40
1.0
  9
$TEXTSTYLE
  7
Standard
  9
$CLAYER
  8
0
  9
$CELTYPE
  6
ByLayer
  9
$CECOLOR
 62
256
  9
$CELTSCALE
 40
1.0
  9
$DISPSILH
 70
0
  9
$DIMSCALE
 40
1.0
  9
$DIMASZ
 40
2.5
  9
$DIMEXO
 40
0.625
  9
$DIMDLI
 40
3.75
  9
$DIMRND
 40
0.0
  9
$DIMDLE
 40
0.0
  9
$DIMEXE
 40
1.25
  9
$DIMTP
 40
0.0
  9
$DIMTM
 40
0.0
  9
$DIMTXT
 40
2.5
  9
$DIMCEN
 40
2.5
  9
$DIMTSZ
 40
0.0
  9
$DIMTOL
 70
0
  9
$DIMLIM
 70
0
  9
$DIMTIH
 70
0
  9
$DIMTOH
 70
0
  9
$DIMSE1
 70
0
  9
$DIMSE2
 70
0
  9
$DIMTAD
 70
1
  9
$DIMZIN
 70
8
  9
$DIMBLK
  1

  9
$DIMASO
 70
1
  9
$DIMSHO
 70
1
  9
$DIMPOST
  1

  9
$DIMAPOST
  1

  9
$DIMALT
 70
0
  9
$DIMALTD
 70
3
  9
$DIMALTF
 40
0.03937007874
  9
$DIMLFAC
 40
1.0
  9
$DIMTOFL
 70
1
  9
$DIMTVP
 40
0.0
  9
$DIMTIX
 70
0
  9
$DIMSOXD
 70
0
  9
$DIMSAH
 70
0
  9
$DIMBLK1
  1

  9
$DIMBLK2
  1

  9
$DIMSTYLE
  2
ISO-25
  9
$DIMCLRD
 70
0
  9
$DIMCLRE
 70
0
  9
$DIMCLRT
 70
0
  9
$DIMTFAC
 40
1.0
  9
$DIMGAP
 40
0.625
  9
$DIMJUST
 70
0
  9
$DIMSD1
 70
0
  9
$DIMSD2
 70
0
  9
$DIMTOLJ
 70
0
  9
$DIMTZIN
 70
8
  9
$DIMALTZ
 70
0
  9
$DIMALTTZ
 70
0
  9
$DIMUPT
 70
0
  9
$DIMDEC
 70
2
  9
$DIMTDEC
 70
2
  9
$DIMALTU
 70
2
  9
$DIMALTTD
 70
3
  9
$DIMTXSTY
  7
Standard
  9
$DIMAUNIT
 70
0
  9
$DIMADEC
 70
0
  9
$DIMALTRND
 40
0.0
  9
$DIMAZIN
 70
0
  9
$DIMDSEP
 70
44
  9
$DIMATFIT
 70
3
  9
$DIMFRAC
 70
0
  9
$DIMLDRBLK
  1

  9
$DIMLUNIT
 70
2
  9
$DIMLWD
 70
-2
  9
$DIMLWE
 70
-2
  9
$DIMTMOVE
 70
0
  9
$DIMFXL
 40
1.0
  9
$DIMFXLON
 70
0
  9
$DIMJOGANG
 40
0.785398163397
  9
$DIMTFILL
 70
0
  9
$DIMTFILLCLR
 70
0
  9
$DIMARCSYM
 70
0
  9
$DIMLTYPE
  6

  9
$DIMLTEX1
  6

  9
$DIMLTEX2
  6

  9
$DIMTXTDIRECTION
 70
0
  9
$LUNITS
 70
2
  9
$LUPREC
 70
4
  9
$SKETCHINC
 40
1.0
  9
$FILLETRAD
 40
10.0
  9
$AUNITS
 70
0
  9
$AUPREC
 70
2
  9
$MENU
  1
.
  9
$ELEVATION
 40
0.0
  9
$PELEVATION
 40
0.0
  9
$THICKNESS
 40
0.0
  9
$LIMCHECK
 70
0
  9
$CHAMFERA
 40
0.0
  9
$CHAMFERB
 40
0.0
  9
$CHAMFERC
 40
0.0
  9
$CHAMFERD
 40
0.0
  9
$SKPOLY
 70
0
  9
$TDCREATE
 40
2460438.843726852
  9
$TDUCREATE
 40
2458532.153996898
  9
$TDUPDATE
 40
2460438.843726852
  9
$TDUUPDATE
 40
2458532.1544311
  9
$TDINDWG
 40
0.0
  9
$TDUSRTIMER
 40
0.0
  9
$USRTIMER
 70
1
  9
$ANGBASE
 50
0.0
  9
$ANGDIR
 70
0
  9
$PDMODE
 70
0
  9
$PDSIZE
 40
0.0
  9
$PLINEWID
 40
0.0
  9
$SPLFRAME
 70
0
  9
$SPLINETYPE
 70
6
  9
$SPLINESEGS
 70
8
  9
$HANDSEED
  5
2AF
  9
$SURFTAB1
 70
6
  9
$SURFTAB2
 70
6
  9
$SURFTYPE
 70
6
  9
$SURFU
 70
6
  9
$SURFV
 70
6
  9
$UCSBASE
  2

  9
$UCSNAME
  2

  9
$UCSORG
 10
0.0
 20
0.0
 30
0.0
  9
$UCSXDIR
 10
1.0
 20
0.0
 30
0.0
  9
$UCSYDIR
 10
0.0
 20
1.0
 30
0.0
  9
$UCSORTHOREF
  2

  9
$UCSORTHOVIEW
 70
0
  9
$UCSORGTOP
 10
0.0
 20
0.0
 30
0.0
  9
$UCSORGBOTTOM
 10
0.0
 20
0.0
 30
0.0
  9
$UCSORGLEFT
 10
0.0
 20
0.0
 30
0.0
  9
$UCSORGRIGHT
 10
0.0
 20
0.0
 30
0.0
  9
$UCSORGFRONT
 10
0.0
 20
0.0
 30
0.0
  9
$UCSORGBACK
 10
0.0
 20
0.0
 30
0.0
  9
$PUCSBASE
  2

  9
$PUCSNAME
  2

  9
$PUCSORG
 10
0.0
 20
0.0
 30
0.0
  9
$PUCSXDIR
 10
1.0
 20
0.0
 30
0.0
  9
$PUCSYDIR
 10
0.0
 20
1.0
 30
0.0
  9
$PUCSORTHOREF
  2

  9
$PUCSORTHOVIEW
 70
0
  9
$PUCSORGTOP
 10
0.0
 20
0.0
 30
0.0
  9
$PUCSORGBOTTOM
 10
0.0
 20
0.0
 30
0.0
  9
$PUCSORGLEFT
 10
0.0
 20
0.0
 30
0.0
  9
$PUCSORGRIGHT
 10
0.0
 20
0.0
 30
0.0
  9
$PUCSORGFRONT
 10
0.0
 20
0.0
 30
0.0
  9
$PUCSORGBACK
 10
0.0
 20
0.0
 30
0.0
  9
$USERI1
 70
0
  9
$USERI2
 70
0
  9
$USERI3
 70
0
  9
$USERI4
 70
0
  9
$USERI5
 70
0
  9
$USERR1
 40
0.0
  9
$USERR2
 40
0.0
  9
$USERR3
 40
0.0
  9
$USERR4
 40
0.0
  9
$USERR5
 40
0.0
  9
$WORLDVIEW
 70
1
  9
$SHADEDGE
 70
3
  9
$SHADEDIF
 70
70
  9
$TILEMODE
 70
1
  9
$MAXACTVP
 70
64
  9
$PINSBASE
 10
0.0
 20
0.0
 30
0.0
  9
$PLIMCHECK
 70
0
  9
$PEXTMIN
 10
1e+20
 20
1e+20
 30
1e+20
  9
$PEXTMAX
 10
-1e+20
 20
-1e+20
 30
-1e+20
  9
$PLIMMIN
 10
0.0
 20
0.0
  9
$PLIMMAX
 10
420.0
 20
297.0
  9
$UNITMODE
 70
0
  9
$VISRETAIN
 70
1
  9
$PLINEGEN
 70
0
  9
$PSLTSCALE
 70
1
  9
$TREEDEPTH
 70
3020
  9
$CMLSTYLE
  2
Standard
  9
$CMLJUST
 70
0
  9
$CMLSCALE
 40
20.0
  9
$PROXYGRAPHICS
 70
1
  9
$MEASUREMENT
 70
1
  9
$CELWEIGHT
370
-1
  9
$ENDCAPS
280
0
  9
$JOINSTYLE
280
0
  9
$LWDISPLAY
290
0
  9
$INSUNITS
 70
4
  9
$HYPERLINKBASE
  1

  9
$STYLESHEET
  1

  9
$XEDIT
290
1
  9
$CEPSNTYPE
380
0
  9
$PSTYLEMODE
290
1
  9
$FINGERPRINTGUID
  2
{E54EF3FA-C97E-4C5D-BDD2-8445FFCE049C}
  9
$VERSIONGUID
  2
{1B453514-FE33-4713-9ACA-D095E6BDC3E0}
  9
$EXTNAMES
290
1
  9
$PSVPSCALE
 40
0.0
  9
$OLESTARTUP
290
0
  9
$SORTENTS
280
127
  9
$INDEXCTL
280
0
  9
$HIDETEXT
280
1
  9
$XCLIPFRAME
280
2
  9
$HALOGAP
280
0
  9
$OBSCOLOR
 70
257
  9
$OBSLTYPE
280
0
  9
$INTERSECTIONDISPLAY
280
0
  9
$INTERSECTIONCOLOR
 70
257
  9
$DIMASSOC
280
2
  9
$PROJECTNAME
  1

  9
$CAMERADISPLAY
290
0
  9
$LENSLENGTH
 40
50.0
  9
$CAMERAHEIGHT
 40
0.0
  9
$STEPSPERSEC
 40
24.0
  9
$STEPSIZE
 40
100.0
  9
$3DDWFPREC
 40
2.0
  9
$PSOLWIDTH
 40
0.005
  9
$PSOLHEIGHT
 40
0.08
  9
$LOFTANG1
 40
1.570796326795
  9
$LOFTANG2
 40
1.570796326795
  9
$LOFTMAG1
 40
0.0
  9
$LOFTMAG2
 40
0.0
  9
$LOFTPARAM
 70
7
  9
$LOFTNORMALS
280
1
  9
$LATITUDE
 40
37.795
  9
$LONGITUDE
 40
-122.394
  9
$NORTHDIRECTION
 40
0.0
  9
$TIMEZONE
 70
-8000
  9
$LIGHTGLYPHDISPLAY
280
1
  9
$TILEMODELIGHTSYNCH
280
1
  9
$CMATERIAL
347
20
  9
$SOLIDHIST
280
0
  9
$SHOWHIST
280
1
  9
$DWFFRAME
280
2
  9
$DGNFRAME
280
2
  9
$REALWORLDSCALE
290
1
  9
$INTERFERECOLOR
 62
256
  9
$CSHADOW
280
0
  9
$SHADOWPLANELOCATION
 40
0.0
  0
ENDSEC
  0
SECTION
  2
CLASSES
  0
CLASS
  1
ACDBDICTIONARYWDFLT
  2
AcDbDictionaryWithDefault
  3
ObjectDBX Classes
 90
0
 91
0
280
0
281
0
  0
CLASS
  1
SUN
  2
AcDbSun
  3
SCENEOE
 90
1153
 91
0
280
0
281
0
  0
CLASS
  1
VISUALSTYLE
  2
AcDbVisualStyle
  3
ObjectDBX Classes
 90
4095
 91
0
280
0
281
0
  0
CLASS
  1
MATERIAL
  2
AcDbMaterial
  3
ObjectDBX Classes
 90
1153
 91
0
280
0
281
0
  0
CLASS
  1
SCALE
  2
AcDbScale
  3
ObjectDBX Classes
 90
1153
 91
0
280
0
281
0
  0
CLASS
  1
TABLESTYLE
  2
AcDbTableStyle
  3
ObjectDBX Classes
 90
4095
 91
0
280
0
281
0
  0
CLASS
  1
MLEADERSTYLE
  2
AcDbMLeaderStyle
  3
ACDB_MLEADERSTYLE_CLASS
 90
4095
 91
0
280
0
281
0
  0
CLASS
  1
DICTIONARYVAR
  2
AcDbDictionaryVar
  3
ObjectDBX Classes
 90
0
 91
0
280
0
281
0
  0
CLASS
  1
CELLSTYLEMAP
  2
AcDbCellStyleMap
  3
ObjectDBX Classes
 90
1152
 91
0
280
0
281
0
  0
CLASS
  1
MENTALRAYRENDERSETTINGS
  2
AcDbMentalRayRenderSettings
  3
SCENEOE
 90
1024
 91
0
280
0
281
0
  0
CLASS
  1
ACDBDETAILVIEWSTYLE
  2
AcDbDetailViewStyle
  3
ObjectDBX Classes
 90
1025
 91
0
280
0
281
0
  0
CLASS
  1
ACDBSECTIONVIEWSTYLE
  2
AcDbSectionViewStyle
  3
ObjectDBX Classes
 90
1025
 91
0
280
0
281
0
  0
CLASS
  1
RASTERVARIABLES
  2
AcDbRasterVariables
  3
ISM
 90
0
 91
0
280
0
281
0
  0
CLASS
  1
LAYOUT
  2
AcDbLayout
  3
ObjectDBX Classes
 90
0
 91
0
280
0
281
0
  0
CLASS
  1
ACDBPLACEHOLDER
  2
AcDbPlaceHolder
  3
ObjectDBX Classes
 90
0
 91
0
280
0
281
0
  0
ENDSEC
  0
SECTION
  2
TABLES
  0
TABLE
  2
VPORT
  5
8
330
0
100
AcDbSymbolTable
 70
1
  0
VPORT
  5
2AB
330
8
100
AcDbSymbolTableRecord
100
AcDbViewportTableRecord
  2
*Active
 70
0
 10
0.0
 20
0.0
 11
1.0
 21
1.0
 12
24.585002502511927
 22
-39.77413340143765
 13
0.0
 23
0.0
 14
0.5
 24
0.5
 15
0.5
 25
0.5
 16
0.0
 26
0.0
 36
1.0
 17
0.0
 27
0.0
 37
0.0
 40
126.87241388401631
 41
1.34
 42
50.0
 43
0.0
 44
0.0
 50
0.0
 51
0.0
 71
0
 72
1000
 73
1
 74
3
 75
0
 76
0
 77
0
 78
0
281
0
 65
1
110
0.0
120
0.0
130
0.0
111
1.0
121
0.0
131
0.0
112
0.0
122
1.0
132
0.0
 79
0
146
0.0
  0
ENDTAB
  0
TABLE
  2
LTYPE
  5
2
330
0
100
AcDbSymbolTable
 70
3
  0
LTYPE
  5
24
330
2
100
AcDbSymbolTableRecord
100
AcDbLinetypeTableRecord
  2
ByBlock
 70
0
  3

 72
65
 73
0
 40
0.0
  0
LTYPE
  5
25
330
2
100
AcDbSymbolTableRecord
100
AcDbLinetypeTableRecord
  2
ByLayer
 70
0
  3

 72
65
 73
0
 40
0.0
  0
LTYPE
  5
26
330
2
100
AcDbSymbolTableRecord
100
AcDbLinetypeTableRecord
  2
Continuous
 70
0
  3

 72
65
 73
0
 40
0.0
  0
ENDTAB
  0
TABLE
  2
LAYER
  5
1
330
0
100
AcDbSymbolTable
 70
2
  0
LAYER
  5
27
330
1
100
AcDbSymbolTableRecord
100
AcDbLayerTableRecord
  2
0
 70
0
 62
7
  6
Continuous
370
-3
390
13
347
21
  0
LAYER
  5
28
330
1
100
AcDbSymbolTableRecord
100
AcDbLayerTableRecord
  2
Defpoints
 70
0
 62
7
  6
Continuous
290
0
370
-3
390
13
347
21
  0
ENDTAB
  0
TABLE
  2
STYLE
  5
5
330
0
100
AcDbSymbolTable
 70
1
  0
STYLE
  5
29
330
5
100
AcDbSymbolTableRecord
100
AcDbTextStyleTableRecord
  2
Standard
 70
0
 40
0.0
 41
1.0
 50
0.0
 71
0
 42
2.5
  3
txt
  4

  0
ENDTAB
  0
TABLE
  2
VIEW
  5
7
330
0
100
AcDbSymbolTable
 70
0
  0
ENDTAB
  0
TABLE
  2
UCS
  5
6
330
0
100
AcDbSymbolTable
 70
0
  0
ENDTAB
  0
TABLE
  2
APPID
  5
3
330
0
100
AcDbSymbolTable
 70
3
  0
APPID
  5
2A
330
3
100
AcDbSymbolTableRecord
100
AcDbRegAppTableRecord
  2
ACAD
 70
0
  0
APPID
  5
2AC
330
3
100
AcDbSymbolTableRecord
100
AcDbRegAppTableRecord
  2
HATCHBACKGROUNDCOLOR
 70
0
  0
APPID
  5
2AD
330
3
100
AcDbSymbolTableRecord
100
AcDbRegAppTableRecord
  2
EZDXF
 70
0
  0
ENDTAB
  0
TABLE
  2
DIMSTYLE
  5
4
330
0
100
AcDbSymbolTable
 70
1
100
AcDbDimStyleTable
  0
DIMSTYLE
105
2B
330
4
100
AcDbSymbolTableRecord
100
AcDbDimStyleTableRecord
  2
Standard
 70
0
 40
1.0
 41
2.5
 42
0.625
 43
3.75
 44
1.25
 45
0.0
 46
0.0
 47
0.0
 48
0.0
 49
2.5
140
2.5
141
2.5
142
0.0
143
0.03937007874
144
1.0
145
0.0
146
1.0
147
0.625
148
0.0
 69
0
 70
0
 71
0
 72
0
 73
0
 74
0
 75
0
 76
0
 77
1
 78
8
 79
3
170
0
171
3
172
1
173
0
174
0
175
0
176
0
177
0
178
0
179
2
271
2
272
2
273
2
274
3
275
0
276
0
277
2
278
44
279
0
280
0
281
0
282
0
283
0
284
8
285
0
286
0
288
0
289
3
290
0
371
-2
372
-2
  0
ENDTAB
  0
TABLE
  2
BLOCK_RECORD
  5
9
330
0
100
AcDbSymbolTable
 70
2
  0
BLOCK_RECORD
  5
17
330
9
100
AcDbSymbolTableRecord
100
AcDbBlockTableRecord
  2
*Model_Space
340
1A
 70
0
280
1
281
0
  0
BLOCK_RECORD
  5
1B
330
9
100
AcDbSymbolTableRecord
100
AcDbBlockTableRecord
  2
*Paper_Space
340
1E
 70
0
280
1
281
0
  0
ENDTAB
  0
ENDSEC
  0
SECTION
  2
BLOCKS
  0
BLOCK
  5
18
330
17
100
AcDbEntity
  8
0
100
AcDbBlockBegin
  2
*Model_Space
 70
0
 10
0.0
 20
0.0
 30
0.0
  3
*Model_Space
  1

  0
ENDBLK
  5
19
330
17
100
AcDbEntity
  8
0
100
AcDbBlockEnd
  0
BLOCK
  5
1C
330
1B
100
AcDbEntity
  8
0
100
AcDbBlockBegin
  2
*Paper_Space
 70
0
 10
0.0
 20
0.0
 30
0.0
  3
*Paper_Space
  1

  0
ENDBLK
  5
1D
330
1B
100
AcDbEntity
  8
0
100
AcDbBlockEnd
  0
ENDSEC
  0
SECTION
  2
ENTITIES
  0
LINE
  5
2F
330
17
100
AcDbEntity
  8
0
100
AcDbLine
 10
76.33206916119359
 20
-51.8786878353805
 30
-4.5
 11
81.11136995227564
 21
-36.33926665179806
 31
-4.5
  0
LINE
  5
30
330
17
100
AcDbEntity
  8
0
100
AcDbLine
 10
76.33206916119359
 20
-51.87868783538051
 30
-4.5
 11
77.6184879098064
 21
-56.22509756698469
 31
-4.5
  0
LINE
  5
31
330
17
100
AcDbEntity
  8
0
100
AcDbLine
 10
78.68679287462248
 20
-55.09395839215837
 30
-4.500000000000001
 11
77.61848790980638
 21
-56.22509756698473
 31
-4.500000000000001
  0
LINE
  5
32
330
17
100
AcDbEntity
  8
0
100
AcDbLine
 10
90.18173409784931
 20
-64.73935933297251
 30
-4.5
 11
78.6867928746226
 21
-55.09395839215848
 31
-4.5
  0
LINE
  5
33
330
17
100
AcDbEntity
  8
0
100
AcDbLine
 10
91.61705561041848
 20
-66.4895459563593
 30
-4.5
 11
90.18173409784933
 21
-64.73935933297253
 31
-4.5
  0
LINE
  5
34
330
17
100
AcDbEntity
  8
0
100
AcDbLine
 10
90.46786206528185
 20
-79.15694745843399
 30
-4.5
 11
91.61705561041846
 21
-66.48954595635931
 31
-4.5
  0
LINE
  5
35
330
17
100
AcDbEntity
  8
0
100
AcDbLine
 10
90.46786206528002
 20
-79.15694745843226
 30
-4.5
 11
70.1517892413276
 21
-100.66794535382788
 31
-4.5
  0
LINE
  5
36
330
17
100
AcDbEntity
  8
0
100
AcDbLine
 10
70.15178924132759
 20
-100.66794535382786
 30
-4.5
 11
56.936082809930895
 21
-103.21034034344581
 31
-4.5
  0
LINE
  5
37
330
17
100
AcDbEntity
  8
0
100
AcDbLine
 10
51.5379059923935
 20
-98.68073216682043
 30
-4.5
 11
56.93608280993107
 21
-103.21034034344562
 31
-4.5
  0
LINE
  5
38
330
17
100
AcDbEntity
  8
0
100
AcDbLine
 10
51.53790599239349
 20
-98.68073216682043
 30
-4.5
 11
46.8378390561239
 21
-96.6693396806206
 31
-4.5
  0
LINE
  5
39
330
17
100
AcDbEntity
  8
0
100
AcDbLine
 10
46.83783905612391
 20
-96.66933968062061
 30
-4.5
 11
34.902245637590745
 21
-91.10368106493418
 31
-4.5
  0
LINE
  5
3A
330
17
100
AcDbEntity
  8
0
100
AcDbLine
 10
34.90224563759081
 20
-91.10368106493421
 30
-4.5
 11
34.90019668455811
 21
-91.11209116760557
 31
-4.5
  0
LINE
  5
3B
330
17
100
AcDbEntity
  8
0
100
AcDbLine
 10
17.68254919414606
 20
-88.0761553707185
 30
-4.5
 11
34.900196684557976
 21
-91.1120911676059
 31
-4.5
  0
LINE
  5
3C
330
17
100
AcDbEntity
  8
0
100
AcDbLine
 10
17.682549194146052
 20
-88.07615537071851
 30
-4.500000000000001
 11
16.861323303537194
 21
-86.94873536578886
 31
-4.500000000000001
  0
LINE
  5
3D
330
17
100
AcDbEntity
  8
0
100
AcDbLine
 10
5.85619577625463
 20
-68.21429272779025
 30
-4.5
 11
16.861323303537205
 21
-86.94873536578886
 31
-4.5
  0
LINE
  5
3E
330
17
100
AcDbEntity
  8
0
100
AcDbLine
 10
-11.244327379093722
 20
-68.21429272779027
 30
-4.5
 11
5.856195776254628
 21
-68.21429272779027
 31
-4.5
  0
LINE
  5
3F
330
17
100
AcDbEntity
  8
0
100
AcDbLine
 10
-11.244327379093733
 20
-68.21429272779027
 30
-4.500000000000001
 11
-15.846286474498156
 21
-74.21429272779027
 31
-4.500000000000001
  0
LINE
  5
40
330
17
100
AcDbEntity
  8
0
100
AcDbLine
 10
-15.846286474498138
 20
-74.21429272779025
 30
-4.5
 11
-33.53826564810145
 21
-74.21429272779025
 31
-4.5
  0
LINE
  5
41
330
17
100
AcDbEntity
  8
0
100
AcDbLine
 10
-33.538265648101465
 20
-74.21429272779027
 30
-4.5
 11
-41.715665382251515
 21
-65.12102366616348
 31
-4.5
  0
LINE
  5
42
330
17
100
AcDbEntity
  8
0
100
AcDbLine
 10
-41.715665382251515
 20
-65.12102366616347
 30
-4.5
 11
-42.44705060539462
 21
-63.12102519821444
 31
-4.5
  0
LINE
  5
43
330
17
100
AcDbEntity
  8
0
100
AcDbLine
 10
-40.54685799660705
 20
-47.53256394971138
 30
-4.5
 11
-42.447050605394615
 21
-63.12102519821445
 31
-4.5
  0
LINE
  5
44
330
17
100
AcDbEntity
  8
0
100
AcDbLine
 10
-39.90175269397094
 20
-40.15604849261526
 30
-4.5
 11
-40.546857996607066
 21
-47.532563949711374
 31
-4.5
  0
LINE
  5
45
330
17
100
AcDbEntity
  8
0
100
AcDbLine
 10
-39.90175269397115
 20
-40.156048492615255
 30
-4.499999999999999
 11
-39.32702184362906
 21
-29.996907358313425
 31
-4.499999999999999
  0
LINE
  5
46
330
17
100
AcDbEntity
  8
0
100
AcDbLine
 10
-38.65770880841995
 20
-22.391863086276512
 30
-4.5
 11
-39.32702184362897
 21
-29.99690735831343
 31
-4.5
  0
LINE
  5
47
330
17
100
AcDbEntity
  8
0
100
AcDbLine
 10
-38.32537008330587
 20
-14.95
 30
-4.5
 11
-38.65770880841997
 21
-22.391863086276512
 31
-4.5
  0
LINE
  5
48
330
17
100
AcDbEntity
  8
0
100
AcDbLine
 10
-38.32537008330587
 20
3.0500000000000007
 30
-4.5
 11
-38.32537008330587
 21
-14.95
 31
-4.5
  0
LINE
  5
49
330
17
100
AcDbEntity
  8
0
100
AcDbLine
 10
-29.926272389634264
 20
12.823941894923754
 30
-4.5
 11
-38.32537008330587
 21
3.050000000000004
 31
-4.5
  0
LINE
  5
4A
330
17
100
AcDbEntity
  8
0
100
AcDbLine
 10
-29.92627238963427
 20
12.82394189492376
 30
-4.5
 11
-29.60792833166329
 21
13.163915153736845
 31
-4.5
  0
LINE
  5
4B
330
17
100
AcDbEntity
  8
0
100
AcDbLine
 10
-29.60792833166328
 20
13.163915153736838
 30
-4.500000000000001
 11
-25.341110576839945
 21
13.55
 31
-4.500000000000001
  0
LINE
  5
4C
330
17
100
AcDbEntity
  8
0
100
AcDbLine
 10
-11.823492938886654
 20
13.549999999999999
 30
-4.5
 11
-25.341110576839945
 21
13.549999999999999
 31
-4.5
  0
LINE
  5
4D
330
17
100
AcDbEntity
  8
0
100
AcDbLine
 10
-6.652740494776855
 20
18.513042608071057
 30
-4.5
 11
-11.823492938886654
 21
13.549999999999999
 31
-4.5
  0
LINE
  5
4E
330
17
100
AcDbEntity
  8
0
100
AcDbLine
 10
-6.652740494776858
 20
18.51304260807106
 30
-4.500000000000001
 11
-5.761097932229161
 21
19.276323493284206
 31
-4.500000000000001
  0
LINE
  5
4F
330
17
100
AcDbEntity
  8
0
100
AcDbLine
 10
-5.761097932229158
 20
19.276323493284206
 30
-4.500000000000001
 11
-3.600235489404761
 21
19.550000000000004
 31
-4.500000000000001
  0
LINE
  5
50
330
17
100
AcDbEntity
  8
0
100
AcDbLine
 10
11.623671726952098
 20
19.55
 30
-4.5
 11
-3.6002354894047595
 21
19.55
 31
-4.5
  0
LINE
  5
51
330
17
100
AcDbEntity
  8
0
100
AcDbLine
 10
17.600189734712156
 20
22.370000000000005
 30
-4.5
 11
11.623671726952097
 21
19.550000000000004
 31
-4.5
  0
LINE
  5
52
330
17
100
AcDbEntity
  8
0
100
AcDbLine
 10
35.87042686967883
 20
22.37
 30
-4.5
 11
17.600189734712153
 21
22.37
 31
-4.5
  0
LINE
  5
53
330
17
100
AcDbEntity
  8
0
100
AcDbLine
 10
39.33848242518856
 20
19.550000000000004
 30
-4.5
 11
35.87042686967883
 21
22.370000000000005
 31
-4.5
  0
LINE
  5
54
330
17
100
AcDbEntity
  8
0
100
AcDbLine
 10
74.21618793746809
 20
19.55
 30
-4.5
 11
39.33848242518856
 21
19.55
 31
-4.5
  0
ARC
  5
55
330
17
100
AcDbEntity
  8
0
100
AcDbCircle
 10
77.85623841850342
 20
19.819295987438935
 30
-4.5
 40
3.649998333333333
100
AcDbArc
 50
-439.6553501628799
 51
-175.76888677097338
  0
LINE
  5
56
330
17
100
AcDbEntity
  8
0
100
AcDbLine
 10
85.00661272460967
 20
9.049999999999995
 30
-4.5
 11
78.51166456494678
 21
16.228626913311594
 31
-4.5
  0
LINE
  5
57
330
17
100
AcDbEntity
  8
0
100
AcDbLine
 10
85.00661272460968
 20
9.050000000000002
 30
-4.5
 11
85.00661272460968
 21
-9.049999999999999
 31
-4.5
  0
LINE
  5
58
330
17
100
AcDbEntity
  8
0
100
AcDbLine
 10
85.00661272460965
 20
-9.049999999999999
 30
-4.5
 11
84.64711611520676
 21
-14.17596303573785
 31
-4.5
  0
LINE
  5
59
330
17
100
AcDbEntity
  8
0
100
AcDbLine
 10
82.16536072180008
 20
-31.562628939140023
 30
-4.5
 11
84.64711611520679
 21
-14.175963035737851
 31
-4.5
  0
LINE
  5
5A
330
17
100
AcDbEntity
  8
0
100
AcDbLine
 10
82.16536072180006
 20
-31.562628939140016
 30
-4.5
 11
81.11136995227564
 21
-36.33926665179807
 31
-4.5
  0
CIRCLE
  5
5B
330
17
100
AcDbEntity
  8
0
100
AcDbCircle
 10
56.260934531241105
 20
-95.01772790030115
 30
-4.5
 40
3.0
  0
CIRCLE
  5
5C
330
17
100
AcDbEntity
  8
0
100
AcDbCircle
 10
76.16417818121296
 20
-38.08349727604961
 30
-4.5
 40
3.0
  0
CIRCLE
  5
5D
330
17
100
AcDbEntity
  8
0
100
AcDbCircle
 10
-33.56094442740556
 20
-4.29842153998699
 30
-4.5
 40
3.0
  0
CIRCLE
  5
5E
330
17
100
AcDbEntity
  8
0
100
AcDbCircle
 10
-37.73696563350121
 20
-55.58349153085844
 30
-4.5
 40
3.0
  0
CIRCLE
  5
5F
330
17
100
AcDbEntity
  8
0
100
AcDbCircle
 10
77.85623841850341
 20
19.819295987438938
 30
-4.5
 40
3.0
  0
LINE
  5
60
330
17
100
AcDbEntity
  8
0
100
AcDbLine
 10
76.33206916119359
 20
-51.8786878353805
 30
-4.5
 11
76.33206916119359
 21
-51.8786878353805
 31
0.0
  0
LINE
  5
61
330
17
100
AcDbEntity
  8
0
100
AcDbLine
 10
76.33206916119359
 20
-51.8786878353805
 30
-4.5
 11
81.11136995227564
 21
-36.33926665179806
 31
-4.5
  0
LINE
  5
62
330
17
100
AcDbEntity
  8
0
100
AcDbLine
 10
81.11136995227565
 20
-36.33926665179807
 30
-4.5
 11
81.11136995227565
 21
-36.33926665179807
 31
0.0
  0
LINE
  5
63
330
17
100
AcDbEntity
  8
0
100
AcDbLine
 10
76.33206916119359
 20
-51.8786878353805
 30
0.0
 11
81.11136995227564
 21
-36.33926665179806
 31
0.0
  0
LINE
  5
64
330
17
100
AcDbEntity
  8
0
100
AcDbLine
 10
76.33206916119359
 20
-51.8786878353805
 30
-4.5
 11
76.33206916119359
 21
-51.8786878353805
 31
0.0
  0
LINE
  5
65
330
17
100
AcDbEntity
  8
0
100
AcDbLine
 10
76.33206916119359
 20
-51.87868783538051
 30
0.0
 11
77.6184879098064
 21
-56.22509756698469
 31
0.0
  0
LINE
  5
66
330
17
100
AcDbEntity
  8
0
100
AcDbLine
 10
77.6184879098064
 20
-56.22509756698467
 30
-4.5
 11
77.6184879098064
 21
-56.22509756698467
 31
0.0
  0
LINE
  5
67
330
17
100
AcDbEntity
  8
0
100
AcDbLine
 10
76.33206916119359
 20
-51.87868783538051
 30
-4.5
 11
77.6184879098064
 21
-56.22509756698469
 31
-4.5
  0
LINE
  5
68
330
17
100
AcDbEntity
  8
0
100
AcDbLine
 10
82.16536072180007
 20
-31.56262893914002
 30
-4.5
 11
82.16536072180007
 21
-31.56262893914002
 31
0.0
  0
LINE
  5
69
330
17
100
AcDbEntity
  8
0
100
AcDbLine
 10
82.16536072180006
 20
-31.562628939140016
 30
0.0
 11
81.11136995227564
 21
-36.33926665179807
 31
0.0
  0
LINE
  5
6A
330
17
100
AcDbEntity
  8
0
100
AcDbLine
 10
81.11136995227565
 20
-36.33926665179807
 30
-4.5
 11
81.11136995227565
 21
-36.33926665179807
 31
0.0
  0
LINE
  5
6B
330
17
100
AcDbEntity
  8
0
100
AcDbLine
 10
82.16536072180006
 20
-31.562628939140016
 30
-4.5
 11
81.11136995227564
 21
-36.33926665179807
 31
-4.5
  0
LINE
  5
6C
330
17
100
AcDbEntity
  8
0
100
AcDbLine
 10
78.6867928746226
 20
-55.093958392158484
 30
-4.5
 11
78.6867928746226
 21
-55.093958392158484
 31
0.0
  0
LINE
  5
6D
330
17
100
AcDbEntity
  8
0
100
AcDbLine
 10
78.68679287462248
 20
-55.09395839215837
 30
-4.500000000000001
 11
77.61848790980638
 21
-56.22509756698473
 31
-4.500000000000001
  0
LINE
  5
6E
330
17
100
AcDbEntity
  8
0
100
AcDbLine
 10
77.6184879098064
 20
-56.22509756698467
 30
-4.5
 11
77.6184879098064
 21
-56.22509756698467
 31
0.0
  0
LINE
  5
6F
330
17
100
AcDbEntity
  8
0
100
AcDbLine
 10
78.68679287462248
 20
-55.09395839215837
 30
-8.881784197001252e-16
 11
77.61848790980638
 21
-56.22509756698473
 31
-8.881784197001252e-16
  0
LINE
  5
70
330
17
100
AcDbEntity
  8
0
100
AcDbLine
 10
82.16536072180007
 20
-31.56262893914002
 30
-4.5
 11
82.16536072180007
 21
-31.56262893914002
 31
0.0
  0
LINE
  5
71
330
17
100
AcDbEntity
  8
0
100
AcDbLine
 10
82.16536072180008
 20
-31.562628939140023
 30
-4.5
 11
84.64711611520679
 21
-14.175963035737851
 31
-4.5
  0
LINE
  5
72
330
17
100
AcDbEntity
  8
0
100
AcDbLine
 10
84.64711611520677
 20
-14.175963035737851
 30
-4.5
 11
84.64711611520677
 21
-14.175963035737851
 31
0.0
  0
LINE
  5
73
330
17
100
AcDbEntity
  8
0
100
AcDbLine
 10
82.16536072180008
 20
-31.562628939140023
 30
0.0
 11
84.64711611520679
 21
-14.175963035737851
 31
0.0
  0
LINE
  5
74
330
17
100
AcDbEntity
  8
0
100
AcDbLine
 10
90.18173409784931
 20
-64.73935933297253
 30
-4.5
 11
90.18173409784931
 21
-64.73935933297253
 31
0.0
  0
LINE
  5
75
330
17
100
AcDbEntity
  8
0
100
AcDbLine
 10
90.18173409784931
 20
-64.73935933297251
 30
-4.5
 11
78.6867928746226
 21
-55.09395839215848
 31
-4.5
  0
LINE
  5
76
330
17
100
AcDbEntity
  8
0
100
AcDbLine
 10
78.6867928746226
 20
-55.093958392158484
 30
-4.5
 11
78.6867928746226
 21
-55.093958392158484
 31
0.0
  0
LINE
  5
77
330
17
100
AcDbEntity
  8
0
100
AcDbLine
 10
90.18173409784931
 20
-64.73935933297251
 30
0.0
 11
78.6867928746226
 21
-55.09395839215848
 31
0.0
  0
LINE
  5
78
330
17
100
AcDbEntity
  8
0
100
AcDbLine
 10
85.00661272460967
 20
-9.05
 30
-4.5
 11
85.00661272460967
 21
-9.05
 31
0.0
  0
LINE
  5
79
330
17
100
AcDbEntity
  8
0
100
AcDbLine
 10
85.00661272460965
 20
-9.049999999999999
 30
0.0
 11
84.64711611520676
 21
-14.17596303573785
 31
0.0
  0
LINE
  5
7A
330
17
100
AcDbEntity
  8
0
100
AcDbLine
 10
84.64711611520677
 20
-14.175963035737851
 30
-4.5
 11
84.64711611520677
 21
-14.175963035737851
 31
0.0
  0
LINE
  5
7B
330
17
100
AcDbEntity
  8
0
100
AcDbLine
 10
85.00661272460965
 20
-9.049999999999999
 30
-4.5
 11
84.64711611520676
 21
-14.17596303573785
 31
-4.5
  0
LINE
  5
7C
330
17
100
AcDbEntity
  8
0
100
AcDbLine
 10
91.61705561041846
 20
-66.48954595635931
 30
-4.5
 11
91.61705561041846
 21
-66.48954595635931
 31
0.0
  0
LINE
  5
7D
330
17
100
AcDbEntity
  8
0
100
AcDbLine
 10
91.61705561041848
 20
-66.4895459563593
 30
-4.5
 11
90.18173409784933
 21
-64.73935933297253
 31
-4.5
  0
LINE
  5
7E
330
17
100
AcDbEntity
  8
0
100
AcDbLine
 10
90.18173409784931
 20
-64.73935933297253
 30
-4.5
 11
90.18173409784931
 21
-64.73935933297253
 31
0.0
  0
LINE
  5
7F
330
17
100
AcDbEntity
  8
0
100
AcDbLine
 10
91.61705561041848
 20
-66.4895459563593
 30
0.0
 11
90.18173409784933
 21
-64.73935933297253
 31
0.0
  0
LINE
  5
80
330
17
100
AcDbEntity
  8
0
100
AcDbLine
 10
85.00661272460967
 20
9.05
 30
-4.5
 11
85.00661272460967
 21
9.05
 31
0.0
  0
LINE
  5
81
330
17
100
AcDbEntity
  8
0
100
AcDbLine
 10
85.00661272460968
 20
9.050000000000002
 30
0.0
 11
85.00661272460968
 21
-9.049999999999999
 31
0.0
  0
LINE
  5
82
330
17
100
AcDbEntity
  8
0
100
AcDbLine
 10
85.00661272460967
 20
-9.05
 30
-4.5
 11
85.00661272460967
 21
-9.05
 31
0.0
  0
LINE
  5
83
330
17
100
AcDbEntity
  8
0
100
AcDbLine
 10
85.00661272460968
 20
9.050000000000002
 30
-4.5
 11
85.00661272460968
 21
-9.049999999999999
 31
-4.5
  0
LINE
  5
84
330
17
100
AcDbEntity
  8
0
100
AcDbLine
 10
90.46786206528185
 20
-79.15694745843399
 30
-4.5
 11
90.46786206528185
 21
-79.15694745843399
 31
0.0
  0
LINE
  5
85
330
17
100
AcDbEntity
  8
0
100
AcDbLine
 10
90.46786206528185
 20
-79.15694745843399
 30
-4.5
 11
91.61705561041846
 21
-66.48954595635931
 31
-4.5
  0
LINE
  5
86
330
17
100
AcDbEntity
  8
0
100
AcDbLine
 10
91.61705561041846
 20
-66.48954595635931
 30
-4.5
 11
91.61705561041846
 21
-66.48954595635931
 31
0.0
  0
LINE
  5
87
330
17
100
AcDbEntity
  8
0
100
AcDbLine
 10
90.46786206528185
 20
-79.15694745843399
 30
0.0
 11
91.61705561041846
 21
-66.48954595635931
 31
0.0
  0
LINE
  5
88
330
17
100
AcDbEntity
  8
0
100
AcDbLine
 10
85.00661272460967
 20
9.05
 30
-4.5
 11
85.00661272460967
 21
9.05
 31
0.0
  0
LINE
  5
89
330
17
100
AcDbEntity
  8
0
100
AcDbLine
 10
85.00661272460967
 20
9.049999999999995
 30
-4.5
 11
78.51166456494678
 21
16.228626913311594
 31
-4.5
  0
LINE
  5
8A
330
17
100
AcDbEntity
  8
0
100
AcDbLine
 10
78.51166456494678
 20
16.228626913311587
 30
-4.5
 11
78.51166456494678
 21
16.228626913311587
 31
0.0
  0
LINE
  5
8B
330
17
100
AcDbEntity
  8
0
100
AcDbLine
 10
85.00661272460967
 20
9.049999999999995
 30
0.0
 11
78.51166456494678
 21
16.228626913311594
 31
0.0
  0
LINE
  5
8C
330
17
100
AcDbEntity
  8
0
100
AcDbLine
 10
90.46786206528185
 20
-79.15694745843399
 30
-4.5
 11
90.46786206528185
 21
-79.15694745843399
 31
0.0
  0
LINE
  5
8D
330
17
100
AcDbEntity
  8
0
100
AcDbLine
 10
90.46786206528002
 20
-79.15694745843226
 30
0.0
 11
70.1517892413276
 21
-100.66794535382788
 31
0.0
  0
LINE
  5
8E
330
17
100
AcDbEntity
  8
0
100
AcDbLine
 10
70.15178924132759
 20
-100.66794535382786
 30
-4.5
 11
70.15178924132759
 21
-100.66794535382786
 31
0.0
  0
LINE
  5
8F
330
17
100
AcDbEntity
  8
0
100
AcDbLine
 10
90.46786206528002
 20
-79.15694745843226
 30
-4.5
 11
70.1517892413276
 21
-100.66794535382788
 31
-4.5
  0
LINE
  5
90
330
17
100
AcDbEntity
  8
0
100
AcDbLine
 10
74.21618793746809
 20
19.55
 30
-4.5
 11
74.21618793746809
 21
19.55
 31
0.0
  0
ARC
  5
91
330
17
100
AcDbEntity
  8
0
100
AcDbCircle
 10
77.85623841850342
 20
19.819295987438935
 30
0.0
 40
3.649998333333333
100
AcDbArc
 50
-439.6553501628799
 51
-175.76888677097338
  0
LINE
  5
92
330
17
100
AcDbEntity
  8
0
100
AcDbLine
 10
78.51166456494678
 20
16.228626913311587
 30
-4.5
 11
78.51166456494678
 21
16.228626913311587
 31
0.0
  0
ARC
  5
93
330
17
100
AcDbEntity
  8
0
100
AcDbCircle
 10
77.85623841850342
 20
19.819295987438935
 30
-4.5
 40
3.649998333333333
100
AcDbArc
 50
-439.6553501628799
 51
-175.76888677097338
  0
LINE
  5
94
330
17
100
AcDbEntity
  8
0
100
AcDbLine
 10
70.15178924132759
 20
-100.66794535382786
 30
-4.5
 11
70.15178924132759
 21
-100.66794535382786
 31
0.0
  0
LINE
  5
95
330
17
100
AcDbEntity
  8
0
100
AcDbLine
 10
70.15178924132759
 20
-100.66794535382786
 30
0.0
 11
56.936082809930895
 21
-103.21034034344581
 31
0.0
  0
LINE
  5
96
330
17
100
AcDbEntity
  8
0
100
AcDbLine
 10
56.936082809930895
 20
-103.21034034344581
 30
-4.5
 11
56.936082809930895
 21
-103.21034034344581
 31
0.0
  0
LINE
  5
97
330
17
100
AcDbEntity
  8
0
100
AcDbLine
 10
70.15178924132759
 20
-100.66794535382786
 30
-4.5
 11
56.936082809930895
 21
-103.21034034344581
 31
-4.5
  0
LINE
  5
98
330
17
100
AcDbEntity
  8
0
100
AcDbLine
 10
74.21618793746809
 20
19.55
 30
-4.5
 11
74.21618793746809
 21
19.55
 31
0.0
  0
LINE
  5
99
330
17
100
AcDbEntity
  8
0
100
AcDbLine
 10
74.21618793746809
 20
19.55
 30
-4.5
 11
39.33848242518856
 21
19.55
 31
-4.5
  0
LINE
  5
9A
330
17
100
AcDbEntity
  8
0
100
AcDbLine
 10
39.33848242518856
 20
19.55
 30
-4.5
 11
39.33848242518856
 21
19.55
 31
0.0
  0
LINE
  5
9B
330
17
100
AcDbEntity
  8
0
100
AcDbLine
 10
74.21618793746809
 20
19.55
 30
0.0
 11
39.33848242518856
 21
19.55
 31
0.0
  0
LINE
  5
9C
330
17
100
AcDbEntity
  8
0
100
AcDbLine
 10
51.53790599239349
 20
-98.68073216682042
 30
-4.5
 11
51.53790599239349
 21
-98.68073216682042
 31
0.0
  0
LINE
  5
9D
330
17
100
AcDbEntity
  8
0
100
AcDbLine
 10
51.5379059923935
 20
-98.68073216682043
 30
-4.5
 11
56.93608280993107
 21
-103.21034034344562
 31
-4.5
  0
LINE
  5
9E
330
17
100
AcDbEntity
  8
0
100
AcDbLine
 10
56.936082809930895
 20
-103.21034034344581
 30
-4.5
 11
56.936082809930895
 21
-103.21034034344581
 31
0.0
  0
LINE
  5
9F
330
17
100
AcDbEntity
  8
0
100
AcDbLine
 10
51.5379059923935
 20
-98.68073216682043
 30
0.0
 11
56.93608280993107
 21
-103.21034034344562
 31
0.0
  0
LINE
  5
A0
330
17
100
AcDbEntity
  8
0
100
AcDbLine
 10
39.33848242518856
 20
19.55
 30
-4.5
 11
39.33848242518856
 21
19.55
 31
0.0
  0
LINE
  5
A1
330
17
100
AcDbEntity
  8
0
100
AcDbLine
 10
39.33848242518856
 20
19.550000000000004
 30
-4.5
 11
35.87042686967883
 21
22.370000000000005
 31
-4.5
  0
LINE
  5
A2
330
17
100
AcDbEntity
  8
0
100
AcDbLine
 10
35.87042686967883
 20
22.37
 30
-4.5
 11
35.87042686967883
 21
22.37
 31
0.0
  0
LINE
  5
A3
330
17
100
AcDbEntity
  8
0
100
AcDbLine
 10
39.33848242518856
 20
19.550000000000004
 30
0.0
 11
35.87042686967883
 21
22.370000000000005
 31
0.0
  0
LINE
  5
A4
330
17
100
AcDbEntity
  8
0
100
AcDbLine
 10
51.53790599239349
 20
-98.68073216682042
 30
-4.5
 11
51.53790599239349
 21
-98.68073216682042
 31
0.0
  0
LINE
  5
A5
330
17
100
AcDbEntity
  8
0
100
AcDbLine
 10
51.53790599239349
 20
-98.68073216682043
 30
0.0
 11
46.8378390561239
 21
-96.6693396806206
 31
0.0
  0
LINE
  5
A6
330
17
100
AcDbEntity
  8
0
100
AcDbLine
 10
46.83783905612391
 20
-96.6693396806206
 30
-4.5
 11
46.83783905612391
 21
-96.6693396806206
 31
0.0
  0
LINE
  5
A7
330
17
100
AcDbEntity
  8
0
100
AcDbLine
 10
51.53790599239349
 20
-98.68073216682043
 30
-4.5
 11
46.8378390561239
 21
-96.6693396806206
 31
-4.5
  0
LINE
  5
A8
330
17
100
AcDbEntity
  8
0
100
AcDbLine
 10
35.87042686967883
 20
22.37
 30
-4.5
 11
35.87042686967883
 21
22.37
 31
0.0
  0
LINE
  5
A9
330
17
100
AcDbEntity
  8
0
100
AcDbLine
 10
35.87042686967883
 20
22.37
 30
-4.5
 11
17.600189734712153
 21
22.37
 31
-4.5
  0
LINE
  5
AA
330
17
100
AcDbEntity
  8
0
100
AcDbLine
 10
17.600189734712156
 20
22.37
 30
-4.5
 11
17.600189734712156
 21
22.37
 31
0.0
  0
LINE
  5
AB
330
17
100
AcDbEntity
  8
0
100
AcDbLine
 10
35.87042686967883
 20
22.37
 30
0.0
 11
17.600189734712153
 21
22.37
 31
0.0
  0
LINE
  5
AC
330
17
100
AcDbEntity
  8
0
100
AcDbLine
 10
46.83783905612391
 20
-96.6693396806206
 30
-4.5
 11
46.83783905612391
 21
-96.6693396806206
 31
0.0
  0
LINE
  5
AD
330
17
100
AcDbEntity
  8
0
100
AcDbLine
 10
46.83783905612391
 20
-96.66933968062061
 30
0.0
 11
34.902245637590745
 21
-91.10368106493418
 31
0.0
  0
LINE
  5
AE
330
17
100
AcDbEntity
  8
0
100
AcDbLine
 10
34.902245637590816
 20
-91.10368106493421
 30
-4.5
 11
34.902245637590816
 21
-91.10368106493421
 31
0.0
  0
LINE
  5
AF
330
17
100
AcDbEntity
  8
0
100
AcDbLine
 10
46.83783905612391
 20
-96.66933968062061
 30
-4.5
 11
34.902245637590745
 21
-91.10368106493418
 31
-4.5
  0
LINE
  5
B0
330
17
100
AcDbEntity
  8
0
100
AcDbLine
 10
17.600189734712156
 20
22.37
 30
-4.5
 11
17.600189734712156
 21
22.37
 31
0.0
  0
LINE
  5
B1
330
17
100
AcDbEntity
  8
0
100
AcDbLine
 10
17.600189734712156
 20
22.370000000000005
 30
-4.5
 11
11.623671726952097
 21
19.550000000000004
 31
-4.5
  0
LINE
  5
B2
330
17
100
AcDbEntity
  8
0
100
AcDbLine
 10
11.623671726952097
 20
19.55
 30
-4.5
 11
11.623671726952097
 21
19.55
 31
0.0
  0
LINE
  5
B3
330
17
100
AcDbEntity
  8
0
100
AcDbLine
 10
17.600189734712156
 20
22.370000000000005
 30
0.0
 11
11.623671726952097
 21
19.550000000000004
 31
0.0
  0
LINE
  5
B4
330
17
100
AcDbEntity
  8
0
100
AcDbLine
 10
34.902245637590816
 20
-91.10368106493421
 30
-4.5
 11
34.902245637590816
 21
-91.10368106493421
 31
0.0
  0
LINE
  5
B5
330
17
100
AcDbEntity
  8
0
100
AcDbLine
 10
34.90224563759081
 20
-91.10368106493421
 30
0.0
 11
34.90019668455811
 21
-91.11209116760557
 31
0.0
  0
LINE
  5
B6
330
17
100
AcDbEntity
  8
0
100
AcDbLine
 10
34.90019668455804
 20
-91.11209116760554
 30
-4.5
 11
34.90019668455804
 21
-91.11209116760554
 31
0.0
  0
LINE
  5
B7
330
17
100
AcDbEntity
  8
0
100
AcDbLine
 10
34.90224563759081
 20
-91.10368106493421
 30
-4.5
 11
34.90019668455811
 21
-91.11209116760557
 31
-4.5
  0
LINE
  5
B8
330
17
100
AcDbEntity
  8
0
100
AcDbLine
 10
11.623671726952097
 20
19.55
 30
-4.5
 11
11.623671726952097
 21
19.55
 31
0.0
  0
LINE
  5
B9
330
17
100
AcDbEntity
  8
0
100
AcDbLine
 10
11.623671726952098
 20
19.55
 30
-4.5
 11
-3.6002354894047595
 21
19.55
 31
-4.5
  0
LINE
  5
BA
330
17
100
AcDbEntity
  8
0
100
AcDbLine
 10
-3.60023548940476
 20
19.55
 30
-4.5
 11
-3.60023548940476
 21
19.55
 31
0.0
  0
LINE
  5
BB
330
17
100
AcDbEntity
  8
0
100
AcDbLine
 10
11.623671726952098
 20
19.55
 30
0.0
 11
-3.6002354894047595
 21
19.55
 31
0.0
  0
LINE
  5
BC
330
17
100
AcDbEntity
  8
0
100
AcDbLine
 10
17.68254919414606
 20
-88.07615537071851
 30
-4.5
 11
17.68254919414606
 21
-88.07615537071851
 31
0.0
  0
LINE
  5
BD
330
17
100
AcDbEntity
  8
0
100
AcDbLine
 10
17.68254919414606
 20
-88.0761553707185
 30
-4.5
 11
34.900196684557976
 21
-91.1120911676059
 31
-4.5
  0
LINE
  5
BE
330
17
100
AcDbEntity
  8
0
100
AcDbLine
 10
34.90019668455804
 20
-91.11209116760554
 30
-4.5
 11
34.90019668455804
 21
-91.11209116760554
 31
0.0
  0
LINE
  5
BF
330
17
100
AcDbEntity
  8
0
100
AcDbLine
 10
17.68254919414606
 20
-88.0761553707185
 30
0.0
 11
34.900196684557976
 21
-91.1120911676059
 31
0.0
  0
LINE
  5
C0
330
17
100
AcDbEntity
  8
0
100
AcDbLine
 10
-5.761097932229157
 20
19.276323493284202
 30
-4.5
 11
-5.761097932229157
 21
19.276323493284202
 31
0.0
  0
LINE
  5
C1
330
17
100
AcDbEntity
  8
0
100
AcDbLine
 10
-5.761097932229158
 20
19.276323493284206
 30
-8.881784197001252e-16
 11
-3.600235489404761
 21
19.550000000000004
 31
-8.881784197001252e-16
  0
LINE
  5
C2
330
17
100
AcDbEntity
  8
0
100
AcDbLine
 10
-3.60023548940476
 20
19.55
 30
-4.5
 11
-3.60023548940476
 21
19.55
 31
0.0
  0
LINE
  5
C3
330
17
100
AcDbEntity
  8
0
100
AcDbLine
 10
-5.761097932229158
 20
19.276323493284206
 30
-4.500000000000001
 11
-3.600235489404761
 21
19.550000000000004
 31
-4.500000000000001
  0
LINE
  5
C4
330
17
100
AcDbEntity
  8
0
100
AcDbLine
 10
17.68254919414606
 20
-88.07615537071851
 30
-4.5
 11
17.68254919414606
 21
-88.07615537071851
 31
0.0
  0
LINE
  5
C5
330
17
100
AcDbEntity
  8
0
100
AcDbLine
 10
17.682549194146052
 20
-88.07615537071851
 30
-8.881784197001252e-16
 11
16.861323303537194
 21
-86.94873536578886
 31
-8.881784197001252e-16
  0
LINE
  5
C6
330
17
100
AcDbEntity
  8
0
100
AcDbLine
 10
16.861323303537198
 20
-86.94873536578885
 30
-4.5
 11
16.861323303537198
 21
-86.94873536578885
 31
0.0
  0
LINE
  5
C7
330
17
100
AcDbEntity
  8
0
100
AcDbLine
 10
17.682549194146052
 20
-88.07615537071851
 30
-4.500000000000001
 11
16.861323303537194
 21
-86.94873536578886
 31
-4.500000000000001
  0
LINE
  5
C8
330
17
100
AcDbEntity
  8
0
100
AcDbLine
 10
-6.652740494776856
 20
18.513042608071057
 30
-4.5
 11
-6.652740494776856
 21
18.513042608071057
 31
0.0
  0
LINE
  5
C9
330
17
100
AcDbEntity
  8
0
100
AcDbLine
 10
-6.652740494776858
 20
18.51304260807106
 30
-8.881784197001252e-16
 11
-5.761097932229161
 21
19.276323493284206
 31
-8.881784197001252e-16
  0
LINE
  5
CA
330
17
100
AcDbEntity
  8
0
100
AcDbLine
 10
-5.761097932229157
 20
19.276323493284202
 30
-4.5
 11
-5.761097932229157
 21
19.276323493284202
 31
0.0
  0
LINE
  5
CB
330
17
100
AcDbEntity
  8
0
100
AcDbLine
 10
-6.652740494776858
 20
18.51304260807106
 30
-4.500000000000001
 11
-5.761097932229161
 21
19.276323493284206
 31
-4.500000000000001
  0
LINE
  5
CC
330
17
100
AcDbEntity
  8
0
100
AcDbLine
 10
5.856195776254627
 20
-68.21429272779025
 30
-4.5
 11
5.856195776254627
 21
-68.21429272779025
 31
0.0
  0
LINE
  5
CD
330
17
100
AcDbEntity
  8
0
100
AcDbLine
 10
5.85619577625463
 20
-68.21429272779025
 30
-4.5
 11
16.861323303537205
 21
-86.94873536578886
 31
-4.5
  0
LINE
  5
CE
330
17
100
AcDbEntity
  8
0
100
AcDbLine
 10
16.861323303537198
 20
-86.94873536578885
 30
-4.5
 11
16.861323303537198
 21
-86.94873536578885
 31
0.0
  0
LINE
  5
CF
330
17
100
AcDbEntity
  8
0
100
AcDbLine
 10
5.85619577625463
 20
-68.21429272779025
 30
0.0
 11
16.861323303537205
 21
-86.94873536578886
 31
0.0
  0
LINE
  5
D0
330
17
100
AcDbEntity
  8
0
100
AcDbLine
 10
-6.652740494776856
 20
18.513042608071057
 30
-4.5
 11
-6.652740494776856
 21
18.513042608071057
 31
0.0
  0
LINE
  5
D1
330
17
100
AcDbEntity
  8
0
100
AcDbLine
 10
-6.652740494776855
 20
18.513042608071057
 30
-4.5
 11
-11.823492938886654
 21
13.549999999999999
 31
-4.5
  0
LINE
  5
D2
330
17
100
AcDbEntity
  8
0
100
AcDbLine
 10
-11.823492938886654
 20
13.55
 30
-4.5
 11
-11.823492938886654
 21
13.55
 31
0.0
  0
LINE
  5
D3
330
17
100
AcDbEntity
  8
0
100
AcDbLine
 10
-6.652740494776855
 20
18.513042608071057
 30
0.0
 11
-11.823492938886654
 21
13.549999999999999
 31
0.0
  0
LINE
  5
D4
330
17
100
AcDbEntity
  8
0
100
AcDbLine
 10
-11.244327379093718
 20
-68.21429272779025
 30
-4.5
 11
-11.244327379093718
 21
-68.21429272779025
 31
0.0
  0
LINE
  5
D5
330
17
100
AcDbEntity
  8
0
100
AcDbLine
 10
-11.244327379093722
 20
-68.21429272779027
 30
-4.5
 11
5.856195776254628
 21
-68.21429272779027
 31
-4.5
  0
LINE
  5
D6
330
17
100
AcDbEntity
  8
0
100
AcDbLine
 10
5.856195776254627
 20
-68.21429272779025
 30
-4.5
 11
5.856195776254627
 21
-68.21429272779025
 31
0.0
  0
LINE
  5
D7
330
17
100
AcDbEntity
  8
0
100
AcDbLine
 10
-11.244327379093722
 20
-68.21429272779027
 30
0.0
 11
5.856195776254628
 21
-68.21429272779027
 31
0.0
  0
LINE
  5
D8
330
17
100
AcDbEntity
  8
0
100
AcDbLine
 10
-11.823492938886654
 20
13.55
 30
-4.5
 11
-11.823492938886654
 21
13.55
 31
0.0
  0
LINE
  5
D9
330
17
100
AcDbEntity
  8
0
100
AcDbLine
 10
-11.823492938886654
 20
13.549999999999999
 30
-4.5
 11
-25.341110576839945
 21
13.549999999999999
 31
-4.5
  0
LINE
  5
DA
330
17
100
AcDbEntity
  8
0
100
AcDbLine
 10
-25.341110576839945
 20
13.550000000000002
 30
-4.5
 11
-25.341110576839945
 21
13.550000000000002
 31
0.0
  0
LINE
  5
DB
330
17
100
AcDbEntity
  8
0
100
AcDbLine
 10
-11.823492938886654
 20
13.549999999999999
 30
0.0
 11
-25.341110576839945
 21
13.549999999999999
 31
0.0
  0
LINE
  5
DC
330
17
100
AcDbEntity
  8
0
100
AcDbLine
 10
-11.244327379093718
 20
-68.21429272779025
 30
-4.5
 11
-11.244327379093718
 21
-68.21429272779025
 31
0.0
  0
LINE
  5
DD
330
17
100
AcDbEntity
  8
0
100
AcDbLine
 10
-11.244327379093733
 20
-68.21429272779027
 30
-8.881784197001252e-16
 11
-15.846286474498156
 21
-74.21429272779027
 31
-8.881784197001252e-16
  0
LINE
  5
DE
330
17
100
AcDbEntity
  8
0
100
AcDbLine
 10
-15.84628647449814
 20
-74.21429272779025
 30
-4.5
 11
-15.84628647449814
 21
-74.21429272779025
 31
0.0
  0
LINE
  5
DF
330
17
100
AcDbEntity
  8
0
100
AcDbLine
 10
-11.244327379093733
 20
-68.21429272779027
 30
-4.500000000000001
 11
-15.846286474498156
 21
-74.21429272779027
 31
-4.500000000000001
  0
LINE
  5
E0
330
17
100
AcDbEntity
  8
0
100
AcDbLine
 10
-29.60792833166328
 20
13.163915153736836
 30
-4.499999999999999
 11
-29.60792833166328
 21
13.163915153736836
 31
8.881784197001252e-16
  0
LINE
  5
E1
330
17
100
AcDbEntity
  8
0
100
AcDbLine
 10
-29.60792833166328
 20
13.163915153736838
 30
-8.881784197001252e-16
 11
-25.341110576839945
 21
13.55
 31
-8.881784197001252e-16
  0
LINE
  5
E2
330
17
100
AcDbEntity
  8
0
100
AcDbLine
 10
-25.341110576839945
 20
13.550000000000002
 30
-4.5
 11
-25.341110576839945
 21
13.550000000000002
 31
0.0
  0
LINE
  5
E3
330
17
100
AcDbEntity
  8
0
100
AcDbLine
 10
-29.60792833166328
 20
13.163915153736838
 30
-4.500000000000001
 11
-25.341110576839945
 21
13.55
 31
-4.500000000000001
  0
LINE
  5
E4
330
17
100
AcDbEntity
  8
0
100
AcDbLine
 10
-15.84628647449814
 20
-74.21429272779025
 30
-4.5
 11
-15.84628647449814
 21
-74.21429272779025
 31
0.0
  0
LINE
  5
E5
330
17
100
AcDbEntity
  8
0
100
AcDbLine
 10
-15.846286474498138
 20
-74.21429272779025
 30
0.0
 11
-33.53826564810145
 21
-74.21429272779025
 31
0.0
  0
LINE
  5
E6
330
17
100
AcDbEntity
  8
0
100
AcDbLine
 10
-33.53826564810145
 20
-74.21429272779025
 30
-4.5
 11
-33.53826564810145
 21
-74.21429272779025
 31
0.0
  0
LINE
  5
E7
330
17
100
AcDbEntity
  8
0
100
AcDbLine
 10
-15.846286474498138
 20
-74.21429272779025
 30
-4.5
 11
-33.53826564810145
 21
-74.21429272779025
 31
-4.5
  0
LINE
  5
E8
330
17
100
AcDbEntity
  8
0
100
AcDbLine
 10
-29.92627238963426
 20
12.82394189492375
 30
-4.5
 11
-29.92627238963426
 21
12.82394189492375
 31
0.0
  0
LINE
  5
E9
330
17
100
AcDbEntity
  8
0
100
AcDbLine
 10
-29.92627238963427
 20
12.82394189492376
 30
0.0
 11
-29.60792833166329
 21
13.163915153736845
 31
0.0
  0
LINE
  5
EA
330
17
100
AcDbEntity
  8
0
100
AcDbLine
 10
-29.60792833166328
 20
13.163915153736836
 30
-4.499999999999999
 11
-29.60792833166328
 21
13.163915153736836
 31
8.881784197001252e-16
  0
LINE
  5
EB
330
17
100
AcDbEntity
  8
0
100
AcDbLine
 10
-29.92627238963427
 20
12.82394189492376
 30
-4.5
 11
-29.60792833166329
 21
13.163915153736845
 31
-4.5
  0
LINE
  5
EC
330
17
100
AcDbEntity
  8
0
100
AcDbLine
 10
-33.53826564810145
 20
-74.21429272779025
 30
-4.5
 11
-33.53826564810145
 21
-74.21429272779025
 31
0.0
  0
LINE
  5
ED
330
17
100
AcDbEntity
  8
0
100
AcDbLine
 10
-33.538265648101465
 20
-74.21429272779027
 30
0.0
 11
-41.715665382251515
 21
-65.12102366616348
 31
0.0
  0
LINE
  5
EE
330
17
100
AcDbEntity
  8
0
100
AcDbLine
 10
-41.71566538225151
 20
-65.12102366616347
 30
-4.5
 11
-41.71566538225151
 21
-65.12102366616347
 31
0.0
  0
LINE
  5
EF
330
17
100
AcDbEntity
  8
0
100
AcDbLine
 10
-33.538265648101465
 20
-74.21429272779027
 30
-4.5
 11
-41.715665382251515
 21
-65.12102366616348
 31
-4.5
  0
LINE
  5
F0
330
17
100
AcDbEntity
  8
0
100
AcDbLine
 10
-29.92627238963426
 20
12.82394189492375
 30
-4.5
 11
-29.92627238963426
 21
12.82394189492375
 31
0.0
  0
LINE
  5
F1
330
17
100
AcDbEntity
  8
0
100
AcDbLine
 10
-29.926272389634264
 20
12.823941894923754
 30
-4.5
 11
-38.32537008330587
 21
3.050000000000004
 31
-4.5
  0
LINE
  5
F2
330
17
100
AcDbEntity
  8
0
100
AcDbLine
 10
-38.32537008330586
 20
3.0500000000000007
 30
-4.500000000000001
 11
-38.32537008330586
 21
3.0500000000000007
 31
-8.881784197001252e-16
  0
LINE
  5
F3
330
17
100
AcDbEntity
  8
0
100
AcDbLine
 10
-29.926272389634264
 20
12.823941894923754
 30
0.0
 11
-38.32537008330587
 21
3.050000000000004
 31
0.0
  0
LINE
  5
F4
330
17
100
AcDbEntity
  8
0
100
AcDbLine
 10
-41.71566538225151
 20
-65.12102366616347
 30
-4.5
 11
-41.71566538225151
 21
-65.12102366616347
 31
0.0
  0
LINE
  5
F5
330
17
100
AcDbEntity
  8
0
100
AcDbLine
 10
-41.715665382251515
 20
-65.12102366616347
 30
0.0
 11
-42.44705060539462
 21
-63.12102519821444
 31
0.0
  0
LINE
  5
F6
330
17
100
AcDbEntity
  8
0
100
AcDbLine
 10
-42.447050605394615
 20
-63.12102519821444
 30
-4.5
 11
-42.447050605394615
 21
-63.12102519821444
 31
0.0
  0
LINE
  5
F7
330
17
100
AcDbEntity
  8
0
100
AcDbLine
 10
-41.715665382251515
 20
-65.12102366616347
 30
-4.5
 11
-42.44705060539462
 21
-63.12102519821444
 31
-4.5
  0
LINE
  5
F8
330
17
100
AcDbEntity
  8
0
100
AcDbLine
 10
-38.32537008330586
 20
3.0500000000000007
 30
-4.500000000000001
 11
-38.32537008330586
 21
3.0500000000000007
 31
-8.881784197001252e-16
  0
LINE
  5
F9
330
17
100
AcDbEntity
  8
0
100
AcDbLine
 10
-38.32537008330587
 20
3.0500000000000007
 30
-4.5
 11
-38.32537008330587
 21
-14.95
 31
-4.5
  0
LINE
  5
FA
330
17
100
AcDbEntity
  8
0
100
AcDbLine
 10
-38.32537008330586
 20
-14.95
 30
-4.500000000000001
 11
-38.32537008330586
 21
-14.95
 31
-8.881784197001252e-16
  0
LINE
  5
FB
330
17
100
AcDbEntity
  8
0
100
AcDbLine
 10
-38.32537008330587
 20
3.0500000000000007
 30
0.0
 11
-38.32537008330587
 21
-14.95
 31
0.0
  0
LINE
  5
FC
330
17
100
AcDbEntity
  8
0
100
AcDbLine
 10
-40.54685799660706
 20
-47.532563949711374
 30
-4.5
 11
-40.54685799660706
 21
-47.532563949711374
 31
0.0
  0
LINE
  5
FD
330
17
100
AcDbEntity
  8
0
100
AcDbLine
 10
-40.54685799660705
 20
-47.53256394971138
 30
-4.5
 11
-42.447050605394615
 21
-63.12102519821445
 31
-4.5
  0
LINE
  5
FE
330
17
100
AcDbEntity
  8
0
100
AcDbLine
 10
-42.447050605394615
 20
-63.12102519821444
 30
-4.5
 11
-42.447050605394615
 21
-63.12102519821444
 31
0.0
  0
LINE
  5
FF
330
17
100
AcDbEntity
  8
0
100
AcDbLine
 10
-40.54685799660705
 20
-47.53256394971138
 30
0.0
 11
-42.447050605394615
 21
-63.12102519821445
 31
0.0
  0
LINE
  5
100
330
17
100
AcDbEntity
  8
0
100
AcDbLine
 10
-38.32537008330586
 20
-14.95
 30
-4.500000000000001
 11
-38.32537008330586
 21
-14.95
 31
-8.881784197001252e-16
  0
LINE
  5
101
330
17
100
AcDbEntity
  8
0
100
AcDbLine
 10
-38.32537008330587
 20
-14.95
 30
-4.5
 11
-38.65770880841997
 21
-22.391863086276512
 31
-4.5
  0
LINE
  5
102
330
17
100
AcDbEntity
  8
0
100
AcDbLine
 10
-38.657708808419954
 20
-22.391863086276512
 30
-4.5
 11
-38.657708808419954
 21
-22.391863086276512
 31
0.0
  0
LINE
  5
103
330
17
100
AcDbEntity
  8
0
100
AcDbLine
 10
-38.32537008330587
 20
-14.95
 30
0.0
 11
-38.65770880841997
 21
-22.391863086276512
 31
0.0
  0
LINE
  5
104
330
17
100
AcDbEntity
  8
0
100
AcDbLine
 10
-39.901752693970934
 20
-40.15604849261526
 30
-4.5
 11
-39.901752693970934
 21
-40.15604849261526
 31
0.0
  0
LINE
  5
105
330
17
100
AcDbEntity
  8
0
100
AcDbLine
 10
-39.90175269397094
 20
-40.15604849261526
 30
-4.5
 11
-40.546857996607066
 21
-47.532563949711374
 31
-4.5
  0
LINE
  5
106
330
17
100
AcDbEntity
  8
0
100
AcDbLine
 10
-40.54685799660706
 20
-47.532563949711374
 30
-4.5
 11
-40.54685799660706
 21
-47.532563949711374
 31
0.0
  0
LINE
  5
107
330
17
100
AcDbEntity
  8
0
100
AcDbLine
 10
-39.90175269397094
 20
-40.15604849261526
 30
0.0
 11
-40.546857996607066
 21
-47.532563949711374
 31
0.0
  0
LINE
  5
108
330
17
100
AcDbEntity
  8
0
100
AcDbLine
 10
-38.657708808419954
 20
-22.391863086276512
 30
-4.5
 11
-38.657708808419954
 21
-22.391863086276512
 31
0.0
  0
LINE
  5
109
330
17
100
AcDbEntity
  8
0
100
AcDbLine
 10
-38.65770880841995
 20
-22.391863086276512
 30
-4.5
 11
-39.32702184362897
 21
-29.99690735831343
 31
-4.5
  0
LINE
  5
10A
330
17
100
AcDbEntity
  8
0
100
AcDbLine
 10
-39.32702184362897
 20
-29.99690735831343
 30
-4.5
 11
-39.32702184362897
 21
-29.99690735831343
 31
0.0
  0
LINE
  5
10B
330
17
100
AcDbEntity
  8
0
100
AcDbLine
 10
-38.65770880841995
 20
-22.391863086276512
 30
0.0
 11
-39.32702184362897
 21
-29.99690735831343
 31
0.0
  0
LINE
  5
10C
330
17
100
AcDbEntity
  8
0
100
AcDbLine
 10
-39.901752693970934
 20
-40.15604849261526
 30
-4.5
 11
-39.901752693970934
 21
-40.15604849261526
 31
0.0
  0
LINE
  5
10D
330
17
100
AcDbEntity
  8
0
100
AcDbLine
 10
-39.90175269397115
 20
-40.156048492615255
 30
8.881784197001252e-16
 11
-39.32702184362906
 21
-29.996907358313425
 31
8.881784197001252e-16
  0
LINE
  5
10E
330
17
100
AcDbEntity
  8
0
100
AcDbLine
 10
-39.32702184362897
 20
-29.99690735831343
 30
-4.5
 11
-39.32702184362897
 21
-29.99690735831343
 31
0.0
  0
LINE
  5
10F
330
17
100
AcDbEntity
  8
0
100
AcDbLine
 10
-39.90175269397115
 20
-40.156048492615255
 30
-4.499999999999999
 11
-39.32702184362906
 21
-29.996907358313425
 31
-4.499999999999999
  0
LINE
  5
110
330
17
100
AcDbEntity
  8
0
100
AcDbLine
 10
53.260934531241105
 20
-95.01772790030115
 30
-4.5
 11
53.260934531241105
 21
-95.01772790030115
 31
-2.5
  0
CIRCLE
  5
111
330
17
100
AcDbEntity
  8
0
100
AcDbCircle
 10
56.260934531241105
 20
-95.01772790030115
 30
-2.5
 40
3.0
  0
LINE
  5
112
330
17
100
AcDbEntity
  8
0
100
AcDbLine
 10
53.260934531241105
 20
-95.01772790030115
 30
-4.5
 11
53.260934531241105
 21
-95.01772790030115
 31
-2.5
  0
CIRCLE
  5
113
330
17
100
AcDbEntity
  8
0
100
AcDbCircle
 10
56.260934531241105
 20
-95.01772790030115
 30
-4.5
 40
3.0
  0
LINE
  5
114
330
17
100
AcDbEntity
  8
0
100
AcDbLine
 10
73.16417818121296
 20
-38.08349727604961
 30
-4.5
 11
73.16417818121296
 21
-38.08349727604961
 31
-2.5
  0
CIRCLE
  5
115
330
17
100
AcDbEntity
  8
0
100
AcDbCircle
 10
76.16417818121296
 20
-38.08349727604961
 30
-2.5
 40
3.0
  0
LINE
  5
116
330
17
100
AcDbEntity
  8
0
100
AcDbLine
 10
73.16417818121296
 20
-38.08349727604961
 30
-4.5
 11
73.16417818121296
 21
-38.08349727604961
 31
-2.5
  0
CIRCLE
  5
117
330
17
100
AcDbEntity
  8
0
100
AcDbCircle
 10
76.16417818121296
 20
-38.08349727604961
 30
-4.5
 40
3.0
  0
LINE
  5
118
330
17
100
AcDbEntity
  8
0
100
AcDbLine
 10
-40.73696563350121
 20
-55.58349153085844
 30
-4.5
 11
-40.73696563350121
 21
-55.58349153085844
 31
-2.5
  0
CIRCLE
  5
119
330
17
100
AcDbEntity
  8
0
100
AcDbCircle
 10
-37.73696563350121
 20
-55.58349153085844
 30
-2.5
 40
3.0
  0
LINE
  5
11A
330
17
100
AcDbEntity
  8
0
100
AcDbLine
 10
-40.73696563350121
 20
-55.58349153085844
 30
-4.5
 11
-40.73696563350121
 21
-55.58349153085844
 31
-2.5
  0
CIRCLE
  5
11B
330
17
100
AcDbEntity
  8
0
100
AcDbCircle
 10
-37.73696563350121
 20
-55.58349153085844
 30
-4.5
 40
3.0
  0
LINE
  5
11C
330
17
100
AcDbEntity
  8
0
100
AcDbLine
 10
74.85623841850341
 20
19.819295987438938
 30
-4.5
 11
74.85623841850341
 21
19.819295987438938
 31
-2.5
  0
CIRCLE
  5
11D
330
17
100
AcDbEntity
  8
0
100
AcDbCircle
 10
77.85623841850341
 20
19.819295987438938
 30
-2.5
 40
3.0
  0
LINE
  5
11E
330
17
100
AcDbEntity
  8
0
100
AcDbLine
 10
74.85623841850341
 20
19.819295987438938
 30
-4.5
 11
74.85623841850341
 21
19.819295987438938
 31
-2.5
  0
CIRCLE
  5
11F
330
17
100
AcDbEntity
  8
0
100
AcDbCircle
 10
77.85623841850341
 20
19.819295987438938
 30
-4.5
 40
3.0
  0
LINE
  5
120
330
17
100
AcDbEntity
  8
0
100
AcDbLine
 10
-36.56094442740556
 20
-4.2984215399869905
 30
-4.5
 11
-36.56094442740556
 21
-4.2984215399869905
 31
-2.5
  0
CIRCLE
  5
121
330
17
100
AcDbEntity
  8
0
100
AcDbCircle
 10
-33.56094442740556
 20
-4.29842153998699
 30
-2.5
 40
3.0
  0
LINE
  5
122
330
17
100
AcDbEntity
  8
0
100
AcDbLine
 10
-36.56094442740556
 20
-4.2984215399869905
 30
-4.5
 11
-36.56094442740556
 21
-4.2984215399869905
 31
-2.5
  0
CIRCLE
  5
123
330
17
100
AcDbEntity
  8
0
100
AcDbCircle
 10
-33.56094442740556
 20
-4.29842153998699
 30
-4.5
 40
3.0
  0
LINE
  5
124
330
17
100
AcDbEntity
  8
0
100
AcDbLine
 10
76.33206916119359
 20
-51.8786878353805
 30
0.0
 11
81.11136995227564
 21
-36.33926665179806
 31
0.0
  0
LINE
  5
125
330
17
100
AcDbEntity
  8
0
100
AcDbLine
 10
82.16536072180006
 20
-31.562628939140016
 30
0.0
 11
81.11136995227564
 21
-36.33926665179807
 31
0.0
  0
LINE
  5
126
330
17
100
AcDbEntity
  8
0
100
AcDbLine
 10
82.16536072180008
 20
-31.562628939140023
 30
0.0
 11
84.64711611520679
 21
-14.175963035737851
 31
0.0
  0
LINE
  5
127
330
17
100
AcDbEntity
  8
0
100
AcDbLine
 10
85.00661272460965
 20
-9.049999999999999
 30
0.0
 11
84.64711611520676
 21
-14.17596303573785
 31
0.0
  0
LINE
  5
128
330
17
100
AcDbEntity
  8
0
100
AcDbLine
 10
85.00661272460968
 20
9.050000000000002
 30
0.0
 11
85.00661272460968
 21
-9.049999999999999
 31
0.0
  0
LINE
  5
129
330
17
100
AcDbEntity
  8
0
100
AcDbLine
 10
85.00661272460967
 20
9.049999999999995
 30
0.0
 11
78.51166456494678
 21
16.228626913311594
 31
0.0
  0
ARC
  5
12A
330
17
100
AcDbEntity
  8
0
100
AcDbCircle
 10
77.85623841850342
 20
19.819295987438935
 30
0.0
 40
3.649998333333333
100
AcDbArc
 50
-439.6553501628799
 51
-175.76888677097338
  0
LINE
  5
12B
330
17
100
AcDbEntity
  8
0
100
AcDbLine
 10
74.21618793746809
 20
19.55
 30
0.0
 11
39.33848242518856
 21
19.55
 31
0.0
  0
LINE
  5
12C
330
17
100
AcDbEntity
  8
0
100
AcDbLine
 10
39.33848242518856
 20
19.550000000000004
 30
0.0
 11
35.87042686967883
 21
22.370000000000005
 31
0.0
  0
LINE
  5
12D
330
17
100
AcDbEntity
  8
0
100
AcDbLine
 10
35.87042686967883
 20
22.37
 30
0.0
 11
17.600189734712153
 21
22.37
 31
0.0
  0
LINE
  5
12E
330
17
100
AcDbEntity
  8
0
100
AcDbLine
 10
17.600189734712156
 20
22.370000000000005
 30
0.0
 11
11.623671726952097
 21
19.550000000000004
 31
0.0
  0
LINE
  5
12F
330
17
100
AcDbEntity
  8
0
100
AcDbLine
 10
11.623671726952098
 20
19.55
 30
0.0
 11
-3.6002354894047595
 21
19.55
 31
0.0
  0
LINE
  5
130
330
17
100
AcDbEntity
  8
0
100
AcDbLine
 10
-5.761097932229158
 20
19.276323493284206
 30
-8.881784197001252e-16
 11
-3.600235489404761
 21
19.550000000000004
 31
-8.881784197001252e-16
  0
LINE
  5
131
330
17
100
AcDbEntity
  8
0
100
AcDbLine
 10
-6.652740494776858
 20
18.51304260807106
 30
-8.881784197001252e-16
 11
-5.761097932229161
 21
19.276323493284206
 31
-8.881784197001252e-16
  0
LINE
  5
132
330
17
100
AcDbEntity
  8
0
100
AcDbLine
 10
-6.652740494776855
 20
18.513042608071057
 30
0.0
 11
-11.823492938886654
 21
13.549999999999999
 31
0.0
  0
LINE
  5
133
330
17
100
AcDbEntity
  8
0
100
AcDbLine
 10
-11.823492938886654
 20
13.549999999999999
 30
0.0
 11
-25.341110576839945
 21
13.549999999999999
 31
0.0
  0
LINE
  5
134
330
17
100
AcDbEntity
  8
0
100
AcDbLine
 10
-29.60792833166328
 20
13.163915153736838
 30
-8.881784197001252e-16
 11
-25.341110576839945
 21
13.55
 31
-8.881784197001252e-16
  0
LINE
  5
135
330
17
100
AcDbEntity
  8
0
100
AcDbLine
 10
-29.92627238963427
 20
12.82394189492376
 30
0.0
 11
-29.60792833166329
 21
13.163915153736845
 31
0.0
  0
LINE
  5
136
330
17
100
AcDbEntity
  8
0
100
AcDbLine
 10
-29.926272389634264
 20
12.823941894923754
 30
0.0
 11
-38.32537008330587
 21
3.050000000000004
 31
0.0
  0
LINE
  5
137
330
17
100
AcDbEntity
  8
0
100
AcDbLine
 10
-38.32537008330587
 20
3.0500000000000007
 30
0.0
 11
-38.32537008330587
 21
-14.95
 31
0.0
  0
LINE
  5
138
330
17
100
AcDbEntity
  8
0
100
AcDbLine
 10
-38.32537008330587
 20
-14.95
 30
0.0
 11
-38.65770880841997
 21
-22.391863086276512
 31
0.0
  0
LINE
  5
139
330
17
100
AcDbEntity
  8
0
100
AcDbLine
 10
-38.65770880841995
 20
-22.391863086276512
 30
0.0
 11
-39.32702184362897
 21
-29.99690735831343
 31
0.0
  0
LINE
  5
13A
330
17
100
AcDbEntity
  8
0
100
AcDbLine
 10
-39.90175269397115
 20
-40.156048492615255
 30
8.881784197001252e-16
 11
-39.32702184362906
 21
-29.996907358313425
 31
8.881784197001252e-16
  0
LINE
  5
13B
330
17
100
AcDbEntity
  8
0
100
AcDbLine
 10
-39.90175269397094
 20
-40.15604849261526
 30
0.0
 11
-40.546857996607066
 21
-47.532563949711374
 31
0.0
  0
LINE
  5
13C
330
17
100
AcDbEntity
  8
0
100
AcDbLine
 10
-40.54685799660705
 20
-47.53256394971138
 30
0.0
 11
-42.447050605394615
 21
-63.12102519821445
 31
0.0
  0
LINE
  5
13D
330
17
100
AcDbEntity
  8
0
100
AcDbLine
 10
-41.715665382251515
 20
-65.12102366616347
 30
0.0
 11
-42.44705060539462
 21
-63.12102519821444
 31
0.0
  0
LINE
  5
13E
330
17
100
AcDbEntity
  8
0
100
AcDbLine
 10
-33.538265648101465
 20
-74.21429272779027
 30
0.0
 11
-41.715665382251515
 21
-65.12102366616348
 31
0.0
  0
LINE
  5
13F
330
17
100
AcDbEntity
  8
0
100
AcDbLine
 10
-15.846286474498138
 20
-74.21429272779025
 30
0.0
 11
-33.53826564810145
 21
-74.21429272779025
 31
0.0
  0
LINE
  5
140
330
17
100
AcDbEntity
  8
0
100
AcDbLine
 10
-11.244327379093733
 20
-68.21429272779027
 30
-8.881784197001252e-16
 11
-15.846286474498156
 21
-74.21429272779027
 31
-8.881784197001252e-16
  0
LINE
  5
141
330
17
100
AcDbEntity
  8
0
100
AcDbLine
 10
-11.244327379093722
 20
-68.21429272779027
 30
0.0
 11
5.856195776254628
 21
-68.21429272779027
 31
0.0
  0
LINE
  5
142
330
17
100
AcDbEntity
  8
0
100
AcDbLine
 10
5.85619577625463
 20
-68.21429272779025
 30
0.0
 11
16.861323303537205
 21
-86.94873536578886
 31
0.0
  0
LINE
  5
143
330
17
100
AcDbEntity
  8
0
100
AcDbLine
 10
17.682549194146052
 20
-88.07615537071851
 30
-8.881784197001252e-16
 11
16.861323303537194
 21
-86.94873536578886
 31
-8.881784197001252e-16
  0
LINE
  5
144
330
17
100
AcDbEntity
  8
0
100
AcDbLine
 10
17.68254919414606
 20
-88.0761553707185
 30
0.0
 11
34.900196684557976
 21
-91.1120911676059
 31
0.0
  0
LINE
  5
145
330
17
100
AcDbEntity
  8
0
100
AcDbLine
 10
34.90224563759081
 20
-91.10368106493421
 30
0.0
 11
34.90019668455811
 21
-91.11209116760557
 31
0.0
  0
LINE
  5
146
330
17
100
AcDbEntity
  8
0
100
AcDbLine
 10
46.83783905612391
 20
-96.66933968062061
 30
0.0
 11
34.902245637590745
 21
-91.10368106493418
 31
0.0
  0
LINE
  5
147
330
17
100
AcDbEntity
  8
0
100
AcDbLine
 10
51.53790599239349
 20
-98.68073216682043
 30
0.0
 11
46.8378390561239
 21
-96.6693396806206
 31
0.0
  0
LINE
  5
148
330
17
100
AcDbEntity
  8
0
100
AcDbLine
 10
51.5379059923935
 20
-98.68073216682043
 30
0.0
 11
56.93608280993107
 21
-103.21034034344562
 31
0.0
  0
LINE
  5
149
330
17
100
AcDbEntity
  8
0
100
AcDbLine
 10
70.15178924132759
 20
-100.66794535382786
 30
0.0
 11
56.936082809930895
 21
-103.21034034344581
 31
0.0
  0
LINE
  5
14A
330
17
100
AcDbEntity
  8
0
100
AcDbLine
 10
90.46786206528002
 20
-79.15694745843226
 30
0.0
 11
70.1517892413276
 21
-100.66794535382788
 31
0.0
  0
LINE
  5
14B
330
17
100
AcDbEntity
  8
0
100
AcDbLine
 10
90.46786206528185
 20
-79.15694745843399
 30
0.0
 11
91.61705561041846
 21
-66.48954595635931
 31
0.0
  0
LINE
  5
14C
330
17
100
AcDbEntity
  8
0
100
AcDbLine
 10
91.61705561041848
 20
-66.4895459563593
 30
0.0
 11
90.18173409784933
 21
-64.73935933297253
 31
0.0
  0
LINE
  5
14D
330
17
100
AcDbEntity
  8
0
100
AcDbLine
 10
90.18173409784931
 20
-64.73935933297251
 30
0.0
 11
78.6867928746226
 21
-55.09395839215848
 31
0.0
  0
LINE
  5
14E
330
17
100
AcDbEntity
  8
0
100
AcDbLine
 10
78.68679287462248
 20
-55.09395839215837
 30
-8.881784197001252e-16
 11
77.61848790980638
 21
-56.22509756698473
 31
-8.881784197001252e-16
  0
LINE
  5
14F
330
17
100
AcDbEntity
  8
0
100
AcDbLine
 10
76.33206916119359
 20
-51.87868783538051
 30
0.0
 11
77.6184879098064
 21
-56.22509756698469
 31
0.0
  0
CIRCLE
  5
150
330
17
100
AcDbEntity
  8
0
100
AcDbCircle
 10
56.260934531241105
 20
-95.01772790030114
 30
0.0
 40
1.65
  0
CIRCLE
  5
151
330
17
100
AcDbEntity
  8
0
100
AcDbCircle
 10
-37.7369656335012
 20
-55.58349153085844
 30
0.0
 40
1.65
  0
CIRCLE
  5
152
330
17
100
AcDbEntity
  8
0
100
AcDbCircle
 10
76.16417818121295
 20
-38.083497276049606
 30
0.0
 40
1.65
  0
CIRCLE
  5
153
330
17
100
AcDbEntity
  8
0
100
AcDbCircle
 10
77.85623841850342
 20
19.819295987438935
 30
0.0
 40
1.65
  0
CIRCLE
  5
154
330
17
100
AcDbEntity
  8
0
100
AcDbCircle
 10
-33.56094442740555
 20
-4.29842153998699
 30
0.0
 40
1.65
  0
LINE
  5
155
330
17
100
AcDbEntity
  8
0
100
AcDbLine
 10
50.327815339815025
 20
-91.14755846955582
 30
0.0
 11
52.995831510552314
 21
-93.38628985439658
 31
0.0
  0
LINE
  5
156
330
17
100
AcDbEntity
  8
0
100
AcDbLine
 10
47.850365848744595
 20
-91.37666082463866
 30
0.0
 11
50.32781533981503
 21
-91.14755846955579
 31
0.0
  0
LINE
  5
157
330
17
100
AcDbEntity
  8
0
100
AcDbLine
 10
47.850365848744595
 20
-91.37666082463869
 30
-8.881784197001252e-16
 11
32.833672948343015
 21
-84.37426192501962
 31
-8.881784197001252e-16
  0
LINE
  5
158
330
17
100
AcDbEntity
  8
0
100
AcDbLine
 10
32.833672948343
 20
-84.37426192501962
 30
0.0
 11
32.401065990962294
 21
-85.15659640629457
 31
0.0
  0
LINE
  5
159
330
17
100
AcDbEntity
  8
0
100
AcDbLine
 10
18.158806050693844
 20
-82.6453017125619
 30
0.0
 11
32.401065990962294
 21
-85.15659640629457
 31
0.0
  0
LINE
  5
15A
330
17
100
AcDbEntity
  8
0
100
AcDbLine
 10
5.607713093225692
 20
-62.230576385223785
 30
-1.7763568394002505e-15
 11
18.158806050693855
 21
-82.64530171256192
 31
-1.7763568394002505e-15
  0
LINE
  5
15B
330
17
100
AcDbEntity
  8
0
100
AcDbLine
 10
5.607713093225697
 20
-62.23057638522378
 30
0.0
 11
-11.683877359947777
 21
-62.23057638522378
 31
0.0
  0
LINE
  5
15C
330
17
100
AcDbEntity
  8
0
100
AcDbLine
 10
-11.683877359947772
 20
-62.230576385223785
 30
-8.881784197001252e-16
 11
-18.633456193396245
 21
-68.23057638522378
 31
-8.881784197001252e-16
  0
LINE
  5
15D
330
17
100
AcDbEntity
  8
0
100
AcDbLine
 10
-33.686300352152664
 20
-68.23057638522377
 30
0.0
 11
-18.63345619339625
 21
-68.23057638522377
 31
0.0
  0
LINE
  5
15E
330
17
100
AcDbEntity
  8
0
100
AcDbLine
 10
-37.09139440707062
 20
-64.07123183166024
 30
0.0
 11
-33.68630035215264
 21
-68.23057638522377
 31
0.0
  0
LINE
  5
15F
330
17
100
AcDbEntity
  8
0
100
AcDbLine
 10
-36.47421185068545
 20
-59.008099642353926
 30
0.0
 11
-37.09139440706821
 21
-64.0712318316632
 31
0.0
  0
ARC
  5
160
330
17
100
AcDbEntity
  8
0
100
AcDbCircle
 10
-37.7369656335012
 20
-55.58349153085844
 30
0.0
 40
3.649998333333333
100
AcDbArc
 50
-69.7595852391193
 51
55.859749309644485
  0
LINE
  5
161
330
17
100
AcDbEntity
  8
0
100
AcDbLine
 10
-35.3086120484908
 20
-49.44595985516872
 30
0.0
 11
-35.688511472253886
 21
-52.562510997553964
 31
0.0
  0
LINE
  5
162
330
17
100
AcDbEntity
  8
0
100
AcDbLine
 10
-35.308612048490794
 20
-49.44595985516872
 30
0.0
 11
-34.620934458887696
 21
-41.58264769748356
 31
0.0
  0
LINE
  5
163
330
17
100
AcDbEntity
  8
0
100
AcDbLine
 10
-34.58082337072754
 20
-41.25747397002295
 30
0.0
 11
-34.6209344588877
 21
-41.58264769748355
 31
0.0
  0
LINE
  5
164
330
17
100
AcDbEntity
  8
0
100
AcDbLine
 10
-33.041645757464565
 20
-22.60605177047979
 30
0.0
 11
-34.58082337072753
 21
-41.25747397002295
 31
0.0
  0
LINE
  5
165
330
17
100
AcDbEntity
  8
0
100
AcDbLine
 10
-32.72519254195
 20
-15.050000000000002
 30
0.0
 11
-33.04164575746456
 21
-22.60605177047979
 31
0.0
  0
LINE
  5
166
330
17
100
AcDbEntity
  8
0
100
AcDbLine
 10
-32.72519254195002
 20
-15.05
 30
0.0
 11
-32.72519254195002
 21
-7.851449350079902
 31
0.0
  0
ARC
  5
167
330
17
100
AcDbEntity
  8
0
100
AcDbCircle
 10
-33.56094442740555
 20
-4.29842153998699
 30
0.0
 40
3.649998333333333
100
AcDbArc
 50
-76.76337131081686
 51
76.76337131081685
  0
LINE
  5
168
330
17
100
AcDbEntity
  8
0
100
AcDbLine
 10
-32.72519254195002
 20
-0.7453937298940763
 30
0.0
 11
-32.72519254195002
 21
2.949999999999999
 31
0.0
  0
LINE
  5
169
330
17
100
AcDbEntity
  8
0
100
AcDbLine
 10
-29.50562208416891
 20
6.998294220120528
 30
0.0
 11
-32.72519254195002
 21
2.95
 31
0.0
  0
LINE
  5
16A
330
17
100
AcDbEntity
  8
0
100
AcDbLine
 10
-11.090497535181287
 20
8.553508014026763
 30
0.0
 11
-29.505622084168905
 21
6.998294220120538
 31
0.0
  0
LINE
  5
16B
330
17
100
AcDbEntity
  8
0
100
AcDbLine
 10
-6.667447275094654
 20
12.030811310275803
 30
0.0
 11
-11.09049753518129
 21
8.553508014026763
 31
0.0
  0
LINE
  5
16C
330
17
100
AcDbEntity
  8
0
100
AcDbLine
 10
-6.667447275094654
 20
12.030811310275803
 30
-8.881784197001252e-16
 11
-5.656422772075344
 21
13.106942043716302
 31
-8.881784197001252e-16
  0
LINE
  5
16D
330
17
100
AcDbEntity
  8
0
100
AcDbLine
 10
-5.656422772075348
 20
13.106942043716304
 30
0.0
 11
9.935217957891732
 21
14.95
 31
0.0
  0
LINE
  5
16E
330
17
100
AcDbEntity
  8
0
100
AcDbLine
 10
12.901286202510018
 20
14.949999999999998
 30
0.0
 11
9.935217957891732
 21
14.949999999999998
 31
0.0
  0
LINE
  5
16F
330
17
100
AcDbEntity
  8
0
100
AcDbLine
 10
12.901286202510018
 20
14.950000000000001
 30
0.0
 11
15.20027165484429
 21
15.978721440852736
 31
0.0
  0
LINE
  5
170
330
17
100
AcDbEntity
  8
0
100
AcDbLine
 10
15.200271654844286
 20
15.978721440852736
 30
0.0
 11
18.18529471972569
 21
16.933492448871394
 31
0.0
  0
LINE
  5
171
330
17
100
AcDbEntity
  8
0
100
AcDbLine
 10
18.551803064821097
 20
17.07983625266429
 30
0.0
 11
18.18529471972569
 21
16.93349244887139
 31
0.0
  0
LINE
  5
172
330
17
100
AcDbEntity
  8
0
100
AcDbLine
 10
23.12050376989374
 20
17.77
 30
-8.881784197001252e-16
 11
18.5518030648211
 21
17.079836252664286
 31
-8.881784197001252e-16
  0
LINE
  5
173
330
17
100
AcDbEntity
  8
0
100
AcDbLine
 10
34.26719775632379
 20
17.77
 30
0.0
 11
23.120503769893737
 21
17.77
 31
0.0
  0
LINE
  5
174
330
17
100
AcDbEntity
  8
0
100
AcDbLine
 10
37.42184019504591
 20
14.949999999999998
 30
0.0
 11
34.26719775632379
 21
17.77
 31
0.0
  0
LINE
  5
175
330
17
100
AcDbEntity
  8
0
100
AcDbLine
 10
75.40661272460967
 20
14.95
 30
0.0
 11
37.42184019504591
 21
14.95
 31
0.0
  0
LINE
  5
176
330
17
100
AcDbEntity
  8
0
100
AcDbLine
 10
80.40661272460969
 20
8.950000000000005
 30
-8.881784197001252e-16
 11
75.40661272460969
 21
14.950000000000005
 31
-8.881784197001252e-16
  0
LINE
  5
177
330
17
100
AcDbEntity
  8
0
100
AcDbLine
 10
80.40661272460967
 20
8.95
 30
0.0
 11
80.40661272460967
 21
-8.950000000000003
 31
0.0
  0
LINE
  5
178
330
17
100
AcDbEntity
  8
0
100
AcDbLine
 10
80.40661272460969
 20
-8.95
 30
-8.881784197001252e-16
 11
80.04711611520679
 21
-14.075963035737852
 31
-8.881784197001252e-16
  0
LINE
  5
179
330
17
100
AcDbEntity
  8
0
100
AcDbLine
 10
80.04711611520678
 20
-14.07596303573785
 30
0.0
 11
77.56536072180008
 21
-31.46262893914002
 31
0.0
  0
LINE
  5
17A
330
17
100
AcDbEntity
  8
0
100
AcDbLine
 10
77.56536072180008
 20
-31.462628939140018
 30
0.0
 11
76.89357712521694
 21
-34.50712131513302
 31
0.0
  0
ARC
  5
17B
330
17
100
AcDbEntity
  8
0
100
AcDbCircle
 10
76.16417818121295
 20
-38.083497276049606
 30
0.0
 40
3.649998333333333
100
AcDbArc
 50
-281.52733533343167
 51
-110.39876386102253
  0
LINE
  5
17C
330
17
100
AcDbEntity
  8
0
100
AcDbLine
 10
74.89196450829209
 20
-41.504602390448945
 30
0.0
 11
71.71698641015023
 21
-51.827727900301134
 31
0.0
  0
LINE
  5
17D
330
17
100
AcDbEntity
  8
0
100
AcDbLine
 10
71.71698641015026
 20
-51.92772790030113
 30
0.0
 11
71.71698641015026
 21
-51.827727900301134
 31
0.0
  0
LINE
  5
17E
330
17
100
AcDbEntity
  8
0
100
AcDbLine
 10
72.44090398370561
 20
-58.0743305326241
 30
0.0
 11
71.71698641015026
 21
-51.927727900301136
 31
0.0
  0
LINE
  5
17F
330
17
100
AcDbEntity
  8
0
100
AcDbLine
 10
73.92790968417751
 20
-59.62596590049307
 30
0.0
 11
72.44090398370561
 21
-58.074330532624096
 31
0.0
  0
LINE
  5
180
330
17
100
AcDbEntity
  8
0
100
AcDbLine
 10
73.92790968417751
 20
-59.62596590049307
 30
0.0
 11
73.9973777173397
 21
-59.67460794097785
 31
0.0
  0
LINE
  5
181
330
17
100
AcDbEntity
  8
0
100
AcDbLine
 10
73.99737771733972
 20
-59.67460794097785
 30
-8.881784197001252e-16
 11
75.56863719210551
 21
-58.460308729954406
 31
-8.881784197001252e-16
  0
LINE
  5
182
330
17
100
AcDbEntity
  8
0
100
AcDbLine
 10
76.97551724947492
 20
-60.17581472324936
 30
0.0
 11
75.5686371921055
 21
-58.46030872995439
 31
0.0
  0
LINE
  5
183
330
17
100
AcDbEntity
  8
0
100
AcDbLine
 10
86.90654432042297
 20
-68.50893587569347
 30
0.0
 11
76.9755172494749
 21
-60.175814723249374
 31
0.0
  0
LINE
  5
184
330
17
100
AcDbEntity
  8
0
100
AcDbLine
 10
86.90654432042297
 20
-68.50893587569345
 30
0.0
 11
86.042769989384
 21
-75.02787107121488
 31
0.0
  0
LINE
  5
185
330
17
100
AcDbEntity
  8
0
100
AcDbLine
 10
86.04276998938404
 20
-75.02787107121489
 30
0.0
 11
65.86350573663486
 21
-96.39401376192595
 31
0.0
  0
LINE
  5
186
330
17
100
AcDbEntity
  8
0
100
AcDbLine
 10
58.583850472519295
 20
-98.07519450439464
 30
0.0
 11
65.86350573663486
 21
-96.39401376192596
 31
0.0
  0
LINE
  5
187
330
17
100
AcDbEntity
  8
0
100
AcDbLine
 10
58.4345665568443
 20
-97.9499304258113
 30
0.0
 11
58.583850472519174
 21
-98.0751945043948
 31
0.0
  0
ARC
  5
188
330
17
100
AcDbEntity
  8
0
100
AcDbCircle
 10
56.260934531241105
 20
-95.01772790030114
 30
0.0
 40
3.649998333333333
100
AcDbArc
 50
-53.450582146498476
 51
153.4505821464966
  0
CIRCLE
  5
189
330
17
100
AcDbEntity
  8
0
100
AcDbCircle
 10
56.260934531241105
 20
-95.01772790030115
 30
-2.5
 40
3.0
  0
CIRCLE
  5
18A
330
17
100
AcDbEntity
  8
0
100
AcDbCircle
 10
56.260934531241105
 20
-95.01772790030114
 30
-2.5
 40
1.65
  0
CIRCLE
  5
18B
330
17
100
AcDbEntity
  8
0
100
AcDbCircle
 10
76.16417818121296
 20
-38.08349727604961
 30
-2.5
 40
3.0
  0
CIRCLE
  5
18C
330
17
100
AcDbEntity
  8
0
100
AcDbCircle
 10
76.16417818121295
 20
-38.083497276049606
 30
-2.5
 40
1.65
  0
CIRCLE
  5
18D
330
17
100
AcDbEntity
  8
0
100
AcDbCircle
 10
-37.73696563350121
 20
-55.58349153085844
 30
-2.5
 40
3.0
  0
CIRCLE
  5
18E
330
17
100
AcDbEntity
  8
0
100
AcDbCircle
 10
-37.7369656335012
 20
-55.58349153085844
 30
-2.5
 40
1.65
  0
CIRCLE
  5
18F
330
17
100
AcDbEntity
  8
0
100
AcDbCircle
 10
77.85623841850341
 20
19.819295987438938
 30
-2.5
 40
3.0
  0
CIRCLE
  5
190
330
17
100
AcDbEntity
  8
0
100
AcDbCircle
 10
77.85623841850342
 20
19.819295987438935
 30
-2.5
 40
1.65
  0
CIRCLE
  5
191
330
17
100
AcDbEntity
  8
0
100
AcDbCircle
 10
-33.56094442740556
 20
-4.29842153998699
 30
-2.5
 40
3.0
  0
CIRCLE
  5
192
330
17
100
AcDbEntity
  8
0
100
AcDbCircle
 10
-33.56094442740555
 20
-4.29842153998699
 30
-2.5
 40
1.65
  0
CIRCLE
  5
193
330
17
100
AcDbEntity
  8
0
100
AcDbCircle
 10
56.260934531241105
 20
-95.01772790030114
 30
-2.5
 40
1.65
  0
LINE
  5
194
330
17
100
AcDbEntity
  8
0
100
AcDbLine
 10
54.61093453124111
 20
-95.01772790030114
 30
-2.5
 11
54.61093453124111
 21
-95.01772790030114
 31
0.0
  0
CIRCLE
  5
195
330
17
100
AcDbEntity
  8
0
100
AcDbCircle
 10
56.260934531241105
 20
-95.01772790030114
 30
0.0
 40
1.65
  0
LINE
  5
196
330
17
100
AcDbEntity
  8
0
100
AcDbLine
 10
54.61093453124111
 20
-95.01772790030114
 30
-2.5
 11
54.61093453124111
 21
-95.01772790030114
 31
0.0
  0
CIRCLE
  5
197
330
17
100
AcDbEntity
  8
0
100
AcDbCircle
 10
-37.7369656335012
 20
-55.58349153085844
 30
-2.5
 40
1.65
  0
LINE
  5
198
330
17
100
AcDbEntity
  8
0
100
AcDbLine
 10
-39.3869656335012
 20
-55.58349153085844
 30
-2.5
 11
-39.3869656335012
 21
-55.58349153085844
 31
0.0
  0
CIRCLE
  5
199
330
17
100
AcDbEntity
  8
0
100
AcDbCircle
 10
-37.7369656335012
 20
-55.58349153085844
 30
0.0
 40
1.65
  0
LINE
  5
19A
330
17
100
AcDbEntity
  8
0
100
AcDbLine
 10
-39.3869656335012
 20
-55.58349153085844
 30
-2.5
 11
-39.3869656335012
 21
-55.58349153085844
 31
0.0
  0
CIRCLE
  5
19B
330
17
100
AcDbEntity
  8
0
100
AcDbCircle
 10
76.16417818121295
 20
-38.083497276049606
 30
-2.5
 40
1.65
  0
LINE
  5
19C
330
17
100
AcDbEntity
  8
0
100
AcDbLine
 10
74.51417818121294
 20
-38.083497276049606
 30
-2.5
 11
74.51417818121294
 21
-38.083497276049606
 31
0.0
  0
CIRCLE
  5
19D
330
17
100
AcDbEntity
  8
0
100
AcDbCircle
 10
76.16417818121295
 20
-38.083497276049606
 30
0.0
 40
1.65
  0
LINE
  5
19E
330
17
100
AcDbEntity
  8
0
100
AcDbLine
 10
74.51417818121294
 20
-38.083497276049606
 30
-2.5
 11
74.51417818121294
 21
-38.083497276049606
 31
0.0
  0
CIRCLE
  5
19F
330
17
100
AcDbEntity
  8
0
100
AcDbCircle
 10
77.85623841850342
 20
19.819295987438935
 30
-2.5
 40
1.65
  0
LINE
  5
1A0
330
17
100
AcDbEntity
  8
0
100
AcDbLine
 10
76.20623841850342
 20
19.819295987438935
 30
-2.5
 11
76.20623841850342
 21
19.819295987438935
 31
0.0
  0
CIRCLE
  5
1A1
330
17
100
AcDbEntity
  8
0
100
AcDbCircle
 10
77.85623841850342
 20
19.819295987438935
 30
0.0
 40
1.65
  0
LINE
  5
1A2
330
17
100
AcDbEntity
  8
0
100
AcDbLine
 10
76.20623841850342
 20
19.819295987438935
 30
-2.5
 11
76.20623841850342
 21
19.819295987438935
 31
0.0
  0
CIRCLE
  5
1A3
330
17
100
AcDbEntity
  8
0
100
AcDbCircle
 10
-33.56094442740555
 20
-4.29842153998699
 30
-2.5
 40
1.65
  0
LINE
  5
1A4
330
17
100
AcDbEntity
  8
0
100
AcDbLine
 10
-35.21094442740555
 20
-4.29842153998699
 30
-2.5
 11
-35.21094442740555
 21
-4.29842153998699
 31
0.0
  0
CIRCLE
  5
1A5
330
17
100
AcDbEntity
  8
0
100
AcDbCircle
 10
-33.56094442740555
 20
-4.29842153998699
 30
0.0
 40
1.65
  0
LINE
  5
1A6
330
17
100
AcDbEntity
  8
0
100
AcDbLine
 10
-35.21094442740555
 20
-4.29842153998699
 30
-2.5
 11
-35.21094442740555
 21
-4.29842153998699
 31
0.0
  0
LINE
  5
1A7
330
17
100
AcDbEntity
  8
0
100
AcDbLine
 10
50.327815339815025
 20
-91.14755846955582
 30
-1.5
 11
52.995831510552314
 21
-93.38628985439658
 31
-1.5
  0
LINE
  5
1A8
330
17
100
AcDbEntity
  8
0
100
AcDbLine
 10
50.32781533981503
 20
-91.1475584695558
 30
-1.5
 11
50.32781533981503
 21
-91.1475584695558
 31
0.0
  0
LINE
  5
1A9
330
17
100
AcDbEntity
  8
0
100
AcDbLine
 10
50.327815339815025
 20
-91.14755846955582
 30
0.0
 11
52.995831510552314
 21
-93.38628985439658
 31
0.0
  0
LINE
  5
1AA
330
17
100
AcDbEntity
  8
0
100
AcDbLine
 10
52.9958315105523
 20
-93.3862898543966
 30
-1.5
 11
52.9958315105523
 21
-93.3862898543966
 31
0.0
  0
LINE
  5
1AB
330
17
100
AcDbEntity
  8
0
100
AcDbLine
 10
47.850365848744595
 20
-91.37666082463866
 30
-1.5
 11
50.32781533981503
 21
-91.14755846955579
 31
-1.5
  0
LINE
  5
1AC
330
17
100
AcDbEntity
  8
0
100
AcDbLine
 10
47.850365848744595
 20
-91.37666082463868
 30
-1.5
 11
47.850365848744595
 21
-91.37666082463868
 31
0.0
  0
LINE
  5
1AD
330
17
100
AcDbEntity
  8
0
100
AcDbLine
 10
47.850365848744595
 20
-91.37666082463866
 30
0.0
 11
50.32781533981503
 21
-91.14755846955579
 31
0.0
  0
LINE
  5
1AE
330
17
100
AcDbEntity
  8
0
100
AcDbLine
 10
50.32781533981503
 20
-91.1475584695558
 30
-1.5
 11
50.32781533981503
 21
-91.1475584695558
 31
0.0
  0
LINE
  5
1AF
330
17
100
AcDbEntity
  8
0
100
AcDbLine
 10
47.850365848744595
 20
-91.37666082463869
 30
-1.5000000000000009
 11
32.833672948343015
 21
-84.37426192501962
 31
-1.5000000000000009
  0
LINE
  5
1B0
330
17
100
AcDbEntity
  8
0
100
AcDbLine
 10
32.83367294834301
 20
-84.37426192501962
 30
-1.5
 11
32.83367294834301
 21
-84.37426192501962
 31
0.0
  0
LINE
  5
1B1
330
17
100
AcDbEntity
  8
0
100
AcDbLine
 10
47.850365848744595
 20
-91.37666082463869
 30
-8.881784197001252e-16
 11
32.833672948343015
 21
-84.37426192501962
 31
-8.881784197001252e-16
  0
LINE
  5
1B2
330
17
100
AcDbEntity
  8
0
100
AcDbLine
 10
47.850365848744595
 20
-91.37666082463868
 30
-1.5
 11
47.850365848744595
 21
-91.37666082463868
 31
0.0
  0
LINE
  5
1B3
330
17
100
AcDbEntity
  8
0
100
AcDbLine
 10
32.833672948343
 20
-84.37426192501962
 30
-1.5
 11
32.401065990962294
 21
-85.15659640629457
 31
-1.5
  0
LINE
  5
1B4
330
17
100
AcDbEntity
  8
0
100
AcDbLine
 10
32.401065990962294
 20
-85.15659640629457
 30
-1.5
 11
32.401065990962294
 21
-85.15659640629457
 31
0.0
  0
LINE
  5
1B5
330
17
100
AcDbEntity
  8
0
100
AcDbLine
 10
32.833672948343
 20
-84.37426192501962
 30
0.0
 11
32.401065990962294
 21
-85.15659640629457
 31
0.0
  0
LINE
  5
1B6
330
17
100
AcDbEntity
  8
0
100
AcDbLine
 10
32.83367294834301
 20
-84.37426192501962
 30
-1.5
 11
32.83367294834301
 21
-84.37426192501962
 31
0.0
  0
LINE
  5
1B7
330
17
100
AcDbEntity
  8
0
100
AcDbLine
 10
18.158806050693844
 20
-82.6453017125619
 30
-1.5
 11
32.401065990962294
 21
-85.15659640629457
 31
-1.5
  0
LINE
  5
1B8
330
17
100
AcDbEntity
  8
0
100
AcDbLine
 10
18.15880605069385
 20
-82.6453017125619
 30
-1.5
 11
18.15880605069385
 21
-82.6453017125619
 31
0.0
  0
LINE
  5
1B9
330
17
100
AcDbEntity
  8
0
100
AcDbLine
 10
18.158806050693844
 20
-82.6453017125619
 30
0.0
 11
32.401065990962294
 21
-85.15659640629457
 31
0.0
  0
LINE
  5
1BA
330
17
100
AcDbEntity
  8
0
100
AcDbLine
 10
32.401065990962294
 20
-85.15659640629457
 30
-1.5
 11
32.401065990962294
 21
-85.15659640629457
 31
0.0
  0
LINE
  5
1BB
330
17
100
AcDbEntity
  8
0
100
AcDbLine
 10
5.607713093225692
 20
-62.230576385223785
 30
-1.5000000000000013
 11
18.158806050693855
 21
-82.64530171256192
 31
-1.5000000000000013
  0
LINE
  5
1BC
330
17
100
AcDbEntity
  8
0
100
AcDbLine
 10
5.607713093225695
 20
-62.23057638522378
 30
-1.5
 11
5.607713093225695
 21
-62.23057638522378
 31
0.0
  0
LINE
  5
1BD
330
17
100
AcDbEntity
  8
0
100
AcDbLine
 10
5.607713093225692
 20
-62.230576385223785
 30
-1.7763568394002505e-15
 11
18.158806050693855
 21
-82.64530171256192
 31
-1.7763568394002505e-15
  0
LINE
  5
1BE
330
17
100
AcDbEntity
  8
0
100
AcDbLine
 10
18.15880605069385
 20
-82.6453017125619
 30
-1.5
 11
18.15880605069385
 21
-82.6453017125619
 31
0.0
  0
LINE
  5
1BF
330
17
100
AcDbEntity
  8
0
100
AcDbLine
 10
5.607713093225697
 20
-62.23057638522378
 30
-1.5
 11
-11.683877359947777
 21
-62.23057638522378
 31
-1.5
  0
LINE
  5
1C0
330
17
100
AcDbEntity
  8
0
100
AcDbLine
 10
-11.683877359947775
 20
-62.23057638522378
 30
-1.5
 11
-11.683877359947775
 21
-62.23057638522378
 31
0.0
  0
LINE
  5
1C1
330
17
100
AcDbEntity
  8
0
100
AcDbLine
 10
5.607713093225697
 20
-62.23057638522378
 30
0.0
 11
-11.683877359947777
 21
-62.23057638522378
 31
0.0
  0
LINE
  5
1C2
330
17
100
AcDbEntity
  8
0
100
AcDbLine
 10
5.607713093225695
 20
-62.23057638522378
 30
-1.5
 11
5.607713093225695
 21
-62.23057638522378
 31
0.0
  0
LINE
  5
1C3
330
17
100
AcDbEntity
  8
0
100
AcDbLine
 10
-11.683877359947772
 20
-62.230576385223785
 30
-1.5000000000000004
 11
-18.633456193396245
 21
-68.23057638522378
 31
-1.5000000000000004
  0
LINE
  5
1C4
330
17
100
AcDbEntity
  8
0
100
AcDbLine
 10
-18.63345619339625
 20
-68.23057638522377
 30
-1.5
 11
-18.63345619339625
 21
-68.23057638522377
 31
0.0
  0
LINE
  5
1C5
330
17
100
AcDbEntity
  8
0
100
AcDbLine
 10
-11.683877359947772
 20
-62.230576385223785
 30
-8.881784197001252e-16
 11
-18.633456193396245
 21
-68.23057638522378
 31
-8.881784197001252e-16
  0
LINE
  5
1C6
330
17
100
AcDbEntity
  8
0
100
AcDbLine
 10
-11.683877359947775
 20
-62.23057638522378
 30
-1.5
 11
-11.683877359947775
 21
-62.23057638522378
 31
0.0
  0
LINE
  5
1C7
330
17
100
AcDbEntity
  8
0
100
AcDbLine
 10
-33.686300352152664
 20
-68.23057638522377
 30
-1.5
 11
-18.63345619339625
 21
-68.23057638522377
 31
-1.5
  0
LINE
  5
1C8
330
17
100
AcDbEntity
  8
0
100
AcDbLine
 10
-33.68630035215266
 20
-68.23057638522377
 30
-1.5
 11
-33.68630035215266
 21
-68.23057638522377
 31
0.0
  0
LINE
  5
1C9
330
17
100
AcDbEntity
  8
0
100
AcDbLine
 10
-33.686300352152664
 20
-68.23057638522377
 30
0.0
 11
-18.63345619339625
 21
-68.23057638522377
 31
0.0
  0
LINE
  5
1CA
330
17
100
AcDbEntity
  8
0
100
AcDbLine
 10
-18.63345619339625
 20
-68.23057638522377
 30
-1.5
 11
-18.63345619339625
 21
-68.23057638522377
 31
0.0
  0
LINE
  5
1CB
330
17
100
AcDbEntity
  8
0
100
AcDbLine
 10
-37.09139440707062
 20
-64.07123183166024
 30
-1.5
 11
-33.68630035215264
 21
-68.23057638522377
 31
-1.5
  0
LINE
  5
1CC
330
17
100
AcDbEntity
  8
0
100
AcDbLine
 10
-37.0913944070682
 20
-64.0712318316632
 30
-1.5
 11
-37.0913944070682
 21
-64.0712318316632
 31
0.0
  0
LINE
  5
1CD
330
17
100
AcDbEntity
  8
0
100
AcDbLine
 10
-37.09139440707062
 20
-64.07123183166024
 30
0.0
 11
-33.68630035215264
 21
-68.23057638522377
 31
0.0
  0
LINE
  5
1CE
330
17
100
AcDbEntity
  8
0
100
AcDbLine
 10
-33.68630035215266
 20
-68.23057638522377
 30
-1.5
 11
-33.68630035215266
 21
-68.23057638522377
 31
0.0
  0
LINE
  5
1CF
330
17
100
AcDbEntity
  8
0
100
AcDbLine
 10
-36.47421185068545
 20
-59.008099642353926
 30
-1.4999999999999996
 11
-37.09139440706821
 21
-64.0712318316632
 31
-1.4999999999999996
  0
LINE
  5
1D0
330
17
100
AcDbEntity
  8
0
100
AcDbLine
 10
-36.47421185068544
 20
-59.00809964235392
 30
-1.5
 11
-36.47421185068544
 21
-59.00809964235392
 31
0.0
  0
LINE
  5
1D1
330
17
100
AcDbEntity
  8
0
100
AcDbLine
 10
-36.47421185068545
 20
-59.008099642353926
 30
0.0
 11
-37.09139440706821
 21
-64.0712318316632
 31
0.0
  0
LINE
  5
1D2
330
17
100
AcDbEntity
  8
0
100
AcDbLine
 10
-37.0913944070682
 20
-64.0712318316632
 30
-1.5
 11
-37.0913944070682
 21
-64.0712318316632
 31
0.0
  0
ARC
  5
1D3
330
17
100
AcDbEntity
  8
0
100
AcDbCircle
 10
-37.7369656335012
 20
-55.58349153085844
 30
-1.5
 40
3.649998333333333
100
AcDbArc
 50
-69.7595852391193
 51
55.859749309644485
  0
LINE
  5
1D4
330
17
100
AcDbEntity
  8
0
100
AcDbLine
 10
-35.68851147225388
 20
-52.56251099755396
 30
-1.5
 11
-35.68851147225388
 21
-52.56251099755396
 31
0.0
  0
ARC
  5
1D5
330
17
100
AcDbEntity
  8
0
100
AcDbCircle
 10
-37.7369656335012
 20
-55.58349153085844
 30
0.0
 40
3.649998333333333
100
AcDbArc
 50
-69.7595852391193
 51
55.859749309644485
  0
LINE
  5
1D6
330
17
100
AcDbEntity
  8
0
100
AcDbLine
 10
-36.47421185068544
 20
-59.00809964235392
 30
-1.5
 11
-36.47421185068544
 21
-59.00809964235392
 31
0.0
  0
LINE
  5
1D7
330
17
100
AcDbEntity
  8
0
100
AcDbLine
 10
-35.3086120484908
 20
-49.44595985516872
 30
-1.4999999999999996
 11
-35.688511472253886
 21
-52.562510997553964
 31
-1.4999999999999996
  0
LINE
  5
1D8
330
17
100
AcDbEntity
  8
0
100
AcDbLine
 10
-35.30861204849079
 20
-49.44595985516872
 30
-1.5
 11
-35.30861204849079
 21
-49.44595985516872
 31
0.0
  0
LINE
  5
1D9
330
17
100
AcDbEntity
  8
0
100
AcDbLine
 10
-35.3086120484908
 20
-49.44595985516872
 30
0.0
 11
-35.688511472253886
 21
-52.562510997553964
 31
0.0
  0
LINE
  5
1DA
330
17
100
AcDbEntity
  8
0
100
AcDbLine
 10
-35.68851147225388
 20
-52.56251099755396
 30
-1.5
 11
-35.68851147225388
 21
-52.56251099755396
 31
0.0
  0
LINE
  5
1DB
330
17
100
AcDbEntity
  8
0
100
AcDbLine
 10
-35.308612048490794
 20
-49.44595985516872
 30
-1.5
 11
-34.620934458887696
 21
-41.58264769748356
 31
-1.5
  0
LINE
  5
1DC
330
17
100
AcDbEntity
  8
0
100
AcDbLine
 10
-34.62093445888769
 20
-41.58264769748356
 30
-1.5
 11
-34.62093445888769
 21
-41.58264769748356
 31
0.0
  0
LINE
  5
1DD
330
17
100
AcDbEntity
  8
0
100
AcDbLine
 10
-35.308612048490794
 20
-49.44595985516872
 30
0.0
 11
-34.620934458887696
 21
-41.58264769748356
 31
0.0
  0
LINE
  5
1DE
330
17
100
AcDbEntity
  8
0
100
AcDbLine
 10
-35.30861204849079
 20
-49.44595985516872
 30
-1.5
 11
-35.30861204849079
 21
-49.44595985516872
 31
0.0
  0
LINE
  5
1DF
330
17
100
AcDbEntity
  8
0
100
AcDbLine
 10
-34.58082337072754
 20
-41.25747397002295
 30
-1.5000000000000004
 11
-34.6209344588877
 21
-41.58264769748355
 31
-1.5000000000000004
  0
LINE
  5
1E0
330
17
100
AcDbEntity
  8
0
100
AcDbLine
 10
-34.58082337072753
 20
-41.25747397002295
 30
-1.5000000000000009
 11
-34.58082337072753
 21
-41.25747397002295
 31
-8.881784197001252e-16
  0
LINE
  5
1E1
330
17
100
AcDbEntity
  8
0
100
AcDbLine
 10
-34.58082337072754
 20
-41.25747397002295
 30
0.0
 11
-34.6209344588877
 21
-41.58264769748355
 31
0.0
  0
LINE
  5
1E2
330
17
100
AcDbEntity
  8
0
100
AcDbLine
 10
-34.62093445888769
 20
-41.58264769748356
 30
-1.5
 11
-34.62093445888769
 21
-41.58264769748356
 31
0.0
  0
LINE
  5
1E3
330
17
100
AcDbEntity
  8
0
100
AcDbLine
 10
-33.041645757464565
 20
-22.60605177047979
 30
-1.5000000000000004
 11
-34.58082337072753
 21
-41.25747397002295
 31
-1.5000000000000004
  0
LINE
  5
1E4
330
17
100
AcDbEntity
  8
0
100
AcDbLine
 10
-33.041645757464565
 20
-22.60605177047979
 30
-1.5
 11
-33.041645757464565
 21
-22.60605177047979
 31
0.0
  0
LINE
  5
1E5
330
17
100
AcDbEntity
  8
0
100
AcDbLine
 10
-33.041645757464565
 20
-22.60605177047979
 30
0.0
 11
-34.58082337072753
 21
-41.25747397002295
 31
0.0
  0
LINE
  5
1E6
330
17
100
AcDbEntity
  8
0
100
AcDbLine
 10
-34.58082337072753
 20
-41.25747397002295
 30
-1.5000000000000009
 11
-34.58082337072753
 21
-41.25747397002295
 31
-8.881784197001252e-16
  0
LINE
  5
1E7
330
17
100
AcDbEntity
  8
0
100
AcDbLine
 10
-32.72519254195
 20
-15.050000000000002
 30
-1.5
 11
-33.04164575746456
 21
-22.60605177047979
 31
-1.5
  0
LINE
  5
1E8
330
17
100
AcDbEntity
  8
0
100
AcDbLine
 10
-32.72519254195002
 20
-15.05
 30
-1.4999999999999996
 11
-32.72519254195002
 21
-15.05
 31
8.881784197001252e-16
  0
LINE
  5
1E9
330
17
100
AcDbEntity
  8
0
100
AcDbLine
 10
-32.72519254195
 20
-15.050000000000002
 30
0.0
 11
-33.04164575746456
 21
-22.60605177047979
 31
0.0
  0
LINE
  5
1EA
330
17
100
AcDbEntity
  8
0
100
AcDbLine
 10
-33.041645757464565
 20
-22.60605177047979
 30
-1.5
 11
-33.041645757464565
 21
-22.60605177047979
 31
0.0
  0
LINE
  5
1EB
330
17
100
AcDbEntity
  8
0
100
AcDbLine
 10
-32.72519254195002
 20
-15.05
 30
-1.5
 11
-32.72519254195002
 21
-7.851449350079902
 31
-1.5
  0
LINE
  5
1EC
330
17
100
AcDbEntity
  8
0
100
AcDbLine
 10
-32.72519254195003
 20
-7.8514493500799025
 30
-1.5
 11
-32.72519254195003
 21
-7.8514493500799025
 31
0.0
  0
LINE
  5
1ED
330
17
100
AcDbEntity
  8
0
100
AcDbLine
 10
-32.72519254195002
 20
-15.05
 30
0.0
 11
-32.72519254195002
 21
-7.851449350079902
 31
0.0
  0
LINE
  5
1EE
330
17
100
AcDbEntity
  8
0
100
AcDbLine
 10
-32.72519254195002
 20
-15.05
 30
-1.4999999999999996
 11
-32.72519254195002
 21
-15.05
 31
8.881784197001252e-16
  0
ARC
  5
1EF
330
17
100
AcDbEntity
  8
0
100
AcDbCircle
 10
-33.56094442740555
 20
-4.29842153998699
 30
-1.5
 40
3.649998333333333
100
AcDbArc
 50
-76.76337131081686
 51
76.76337131081685
  0
LINE
  5
1F0
330
17
100
AcDbEntity
  8
0
100
AcDbLine
 10
-32.72519254195003
 20
-0.7453937298940763
 30
-1.5000000000000053
 11
-32.72519254195003
 21
-0.7453937298940763
 31
-5.329070518200751e-15
  0
ARC
  5
1F1
330
17
100
AcDbEntity
  8
0
100
AcDbCircle
 10
-33.56094442740555
 20
-4.29842153998699
 30
0.0
 40
3.649998333333333
100
AcDbArc
 50
-76.76337131081686
 51
76.76337131081685
  0
LINE
  5
1F2
330
17
100
AcDbEntity
  8
0
100
AcDbLine
 10
-32.72519254195003
 20
-7.8514493500799025
 30
-1.5
 11
-32.72519254195003
 21
-7.8514493500799025
 31
0.0
  0
LINE
  5
1F3
330
17
100
AcDbEntity
  8
0
100
AcDbLine
 10
-32.72519254195002
 20
-0.7453937298940763
 30
-1.5
 11
-32.72519254195002
 21
2.949999999999999
 31
-1.5
  0
LINE
  5
1F4
330
17
100
AcDbEntity
  8
0
100
AcDbLine
 10
-32.72519254195002
 20
2.9499999999999993
 30
-1.4999999999999996
 11
-32.72519254195002
 21
2.9499999999999993
 31
8.881784197001252e-16
  0
LINE
  5
1F5
330
17
100
AcDbEntity
  8
0
100
AcDbLine
 10
-32.72519254195002
 20
-0.7453937298940763
 30
0.0
 11
-32.72519254195002
 21
2.949999999999999
 31
0.0
  0
LINE
  5
1F6
330
17
100
AcDbEntity
  8
0
100
AcDbLine
 10
-32.72519254195003
 20
-0.7453937298940763
 30
-1.5000000000000053
 11
-32.72519254195003
 21
-0.7453937298940763
 31
-5.329070518200751e-15
  0
LINE
  5
1F7
330
17
100
AcDbEntity
  8
0
100
AcDbLine
 10
-29.50562208416891
 20
6.998294220120528
 30
-1.5
 11
-32.72519254195002
 21
2.95
 31
-1.5
  0
LINE
  5
1F8
330
17
100
AcDbEntity
  8
0
100
AcDbLine
 10
-29.505622084168905
 20
6.998294220120525
 30
-1.5
 11
-29.505622084168905
 21
6.998294220120525
 31
0.0
  0
LINE
  5
1F9
330
17
100
AcDbEntity
  8
0
100
AcDbLine
 10
-29.50562208416891
 20
6.998294220120528
 30
0.0
 11
-32.72519254195002
 21
2.95
 31
0.0
  0
LINE
  5
1FA
330
17
100
AcDbEntity
  8
0
100
AcDbLine
 10
-32.72519254195002
 20
2.9499999999999993
 30
-1.4999999999999996
 11
-32.72519254195002
 21
2.9499999999999993
 31
8.881784197001252e-16
  0
LINE
  5
1FB
330
17
100
AcDbEntity
  8
0
100
AcDbLine
 10
-11.090497535181287
 20
8.553508014026763
 30
-1.5
 11
-29.505622084168905
 21
6.998294220120538
 31
-1.5
  0
LINE
  5
1FC
330
17
100
AcDbEntity
  8
0
100
AcDbLine
 10
-11.090497535181287
 20
8.55350801402676
 30
-1.5
 11
-11.090497535181287
 21
8.55350801402676
 31
0.0
  0
LINE
  5
1FD
330
17
100
AcDbEntity
  8
0
100
AcDbLine
 10
-11.090497535181287
 20
8.553508014026763
 30
0.0
 11
-29.505622084168905
 21
6.998294220120538
 31
0.0
  0
LINE
  5
1FE
330
17
100
AcDbEntity
  8
0
100
AcDbLine
 10
-29.505622084168905
 20
6.998294220120525
 30
-1.5
 11
-29.505622084168905
 21
6.998294220120525
 31
0.0
  0
LINE
  5
1FF
330
17
100
AcDbEntity
  8
0
100
AcDbLine
 10
-6.667447275094654
 20
12.030811310275803
 30
-1.5000000000000004
 11
-11.09049753518129
 21
8.553508014026763
 31
-1.5000000000000004
  0
LINE
  5
200
330
17
100
AcDbEntity
  8
0
100
AcDbLine
 10
-6.667447275094654
 20
12.030811310275803
 30
-1.5000000000000004
 11
-6.667447275094654
 21
12.030811310275803
 31
0.0
  0
LINE
  5
201
330
17
100
AcDbEntity
  8
0
100
AcDbLine
 10
-6.667447275094654
 20
12.030811310275803
 30
0.0
 11
-11.09049753518129
 21
8.553508014026763
 31
0.0
  0
LINE
  5
202
330
17
100
AcDbEntity
  8
0
100
AcDbLine
 10
-11.090497535181287
 20
8.55350801402676
 30
-1.5
 11
-11.090497535181287
 21
8.55350801402676
 31
0.0
  0
LINE
  5
203
330
17
100
AcDbEntity
  8
0
100
AcDbLine
 10
-6.667447275094654
 20
12.030811310275803
 30
-1.5000000000000009
 11
-5.656422772075344
 21
13.106942043716302
 31
-1.5000000000000009
  0
LINE
  5
204
330
17
100
AcDbEntity
  8
0
100
AcDbLine
 10
-5.656422772075347
 20
13.106942043716304
 30
-1.5000000000000004
 11
-5.656422772075347
 21
13.106942043716304
 31
0.0
  0
LINE
  5
205
330
17
100
AcDbEntity
  8
0
100
AcDbLine
 10
-6.667447275094654
 20
12.030811310275803
 30
-8.881784197001252e-16
 11
-5.656422772075344
 21
13.106942043716302
 31
-8.881784197001252e-16
  0
LINE
  5
206
330
17
100
AcDbEntity
  8
0
100
AcDbLine
 10
-6.667447275094654
 20
12.030811310275803
 30
-1.5000000000000004
 11
-6.667447275094654
 21
12.030811310275803
 31
0.0
  0
LINE
  5
207
330
17
100
AcDbEntity
  8
0
100
AcDbLine
 10
-5.656422772075348
 20
13.106942043716304
 30
-1.4999999999999996
 11
9.935217957891732
 21
14.95
 31
-1.4999999999999996
  0
LINE
  5
208
330
17
100
AcDbEntity
  8
0
100
AcDbLine
 10
9.935217957891732
 20
14.949999999999998
 30
-1.5
 11
9.935217957891732
 21
14.949999999999998
 31
0.0
  0
LINE
  5
209
330
17
100
AcDbEntity
  8
0
100
AcDbLine
 10
-5.656422772075348
 20
13.106942043716304
 30
0.0
 11
9.935217957891732
 21
14.95
 31
0.0
  0
LINE
  5
20A
330
17
100
AcDbEntity
  8
0
100
AcDbLine
 10
-5.656422772075347
 20
13.106942043716304
 30
-1.5000000000000004
 11
-5.656422772075347
 21
13.106942043716304
 31
0.0
  0
LINE
  5
20B
330
17
100
AcDbEntity
  8
0
100
AcDbLine
 10
12.901286202510018
 20
14.949999999999998
 30
-1.5
 11
9.935217957891732
 21
14.949999999999998
 31
-1.5
  0
LINE
  5
20C
330
17
100
AcDbEntity
  8
0
100
AcDbLine
 10
12.901286202510018
 20
14.95
 30
-1.5
 11
12.901286202510018
 21
14.95
 31
0.0
  0
LINE
  5
20D
330
17
100
AcDbEntity
  8
0
100
AcDbLine
 10
12.901286202510018
 20
14.949999999999998
 30
0.0
 11
9.935217957891732
 21
14.949999999999998
 31
0.0
  0
LINE
  5
20E
330
17
100
AcDbEntity
  8
0
100
AcDbLine
 10
9.935217957891732
 20
14.949999999999998
 30
-1.5
 11
9.935217957891732
 21
14.949999999999998
 31
0.0
  0
LINE
  5
20F
330
17
100
AcDbEntity
  8
0
100
AcDbLine
 10
12.901286202510018
 20
14.950000000000001
 30
-1.5
 11
15.20027165484429
 21
15.978721440852736
 31
-1.5
  0
LINE
  5
210
330
17
100
AcDbEntity
  8
0
100
AcDbLine
 10
15.200271654844288
 20
15.978721440852734
 30
-1.5
 11
15.200271654844288
 21
15.978721440852734
 31
0.0
  0
LINE
  5
211
330
17
100
AcDbEntity
  8
0
100
AcDbLine
 10
12.901286202510018
 20
14.950000000000001
 30
0.0
 11
15.20027165484429
 21
15.978721440852736
 31
0.0
  0
LINE
  5
212
330
17
100
AcDbEntity
  8
0
100
AcDbLine
 10
12.901286202510018
 20
14.95
 30
-1.5
 11
12.901286202510018
 21
14.95
 31
0.0
  0
LINE
  5
213
330
17
100
AcDbEntity
  8
0
100
AcDbLine
 10
15.200271654844286
 20
15.978721440852736
 30
-1.5000000000000004
 11
18.18529471972569
 21
16.933492448871394
 31
-1.5000000000000004
  0
LINE
  5
214
330
17
100
AcDbEntity
  8
0
100
AcDbLine
 10
18.18529471972569
 20
16.933492448871394
 30
-1.5000000000000009
 11
18.18529471972569
 21
16.933492448871394
 31
-8.881784197001252e-16
  0
LINE
  5
215
330
17
100
AcDbEntity
  8
0
100
AcDbLine
 10
15.200271654844286
 20
15.978721440852736
 30
0.0
 11
18.18529471972569
 21
16.933492448871394
 31
0.0
  0
LINE
  5
216
330
17
100
AcDbEntity
  8
0
100
AcDbLine
 10
15.200271654844288
 20
15.978721440852734
 30
-1.5
 11
15.200271654844288
 21
15.978721440852734
 31
0.0
  0
LINE
  5
217
330
17
100
AcDbEntity
  8
0
100
AcDbLine
 10
18.551803064821097
 20
17.07983625266429
 30
-1.5
 11
18.18529471972569
 21
16.93349244887139
 31
-1.5
  0
LINE
  5
218
330
17
100
AcDbEntity
  8
0
100
AcDbLine
 10
18.551803064821097
 20
17.07983625266429
 30
-1.5
 11
18.551803064821097
 21
17.07983625266429
 31
0.0
  0
LINE
  5
219
330
17
100
AcDbEntity
  8
0
100
AcDbLine
 10
18.551803064821097
 20
17.07983625266429
 30
0.0
 11
18.18529471972569
 21
16.93349244887139
 31
0.0
  0
LINE
  5
21A
330
17
100
AcDbEntity
  8
0
100
AcDbLine
 10
18.18529471972569
 20
16.933492448871394
 30
-1.5000000000000009
 11
18.18529471972569
 21
16.933492448871394
 31
-8.881784197001252e-16
  0
LINE
  5
21B
330
17
100
AcDbEntity
  8
0
100
AcDbLine
 10
23.12050376989374
 20
17.77
 30
-1.5000000000000004
 11
18.5518030648211
 21
17.079836252664286
 31
-1.5000000000000004
  0
LINE
  5
21C
330
17
100
AcDbEntity
  8
0
100
AcDbLine
 10
23.120503769893737
 20
17.77
 30
-1.5
 11
23.120503769893737
 21
17.77
 31
0.0
  0
LINE
  5
21D
330
17
100
AcDbEntity
  8
0
100
AcDbLine
 10
23.12050376989374
 20
17.77
 30
-8.881784197001252e-16
 11
18.5518030648211
 21
17.079836252664286
 31
-8.881784197001252e-16
  0
LINE
  5
21E
330
17
100
AcDbEntity
  8
0
100
AcDbLine
 10
18.551803064821097
 20
17.07983625266429
 30
-1.5
 11
18.551803064821097
 21
17.07983625266429
 31
0.0
  0
LINE
  5
21F
330
17
100
AcDbEntity
  8
0
100
AcDbLine
 10
34.26719775632379
 20
17.77
 30
-1.5
 11
23.120503769893737
 21
17.77
 31
-1.5
  0
LINE
  5
220
330
17
100
AcDbEntity
  8
0
100
AcDbLine
 10
34.26719775632379
 20
17.77
 30
-1.5
 11
34.26719775632379
 21
17.77
 31
0.0
  0
LINE
  5
221
330
17
100
AcDbEntity
  8
0
100
AcDbLine
 10
34.26719775632379
 20
17.77
 30
0.0
 11
23.120503769893737
 21
17.77
 31
0.0
  0
LINE
  5
222
330
17
100
AcDbEntity
  8
0
100
AcDbLine
 10
23.120503769893737
 20
17.77
 30
-1.5
 11
23.120503769893737
 21
17.77
 31
0.0
  0
LINE
  5
223
330
17
100
AcDbEntity
  8
0
100
AcDbLine
 10
37.42184019504591
 20
14.949999999999998
 30
-1.5
 11
34.26719775632379
 21
17.77
 31
-1.5
  0
LINE
  5
224
330
17
100
AcDbEntity
  8
0
100
AcDbLine
 10
37.42184019504591
 20
14.95
 30
-1.5
 11
37.42184019504591
 21
14.95
 31
0.0
  0
LINE
  5
225
330
17
100
AcDbEntity
  8
0
100
AcDbLine
 10
37.42184019504591
 20
14.949999999999998
 30
0.0
 11
34.26719775632379
 21
17.77
 31
0.0
  0
LINE
  5
226
330
17
100
AcDbEntity
  8
0
100
AcDbLine
 10
34.26719775632379
 20
17.77
 30
-1.5
 11
34.26719775632379
 21
17.77
 31
0.0
  0
LINE
  5
227
330
17
100
AcDbEntity
  8
0
100
AcDbLine
 10
75.40661272460967
 20
14.95
 30
-1.5
 11
37.42184019504591
 21
14.95
 31
-1.5
  0
LINE
  5
228
330
17
100
AcDbEntity
  8
0
100
AcDbLine
 10
75.40661272460967
 20
14.95
 30
-1.5
 11
75.40661272460967
 21
14.95
 31
0.0
  0
LINE
  5
229
330
17
100
AcDbEntity
  8
0
100
AcDbLine
 10
75.40661272460967
 20
14.95
 30
0.0
 11
37.42184019504591
 21
14.95
 31
0.0
  0
LINE
  5
22A
330
17
100
AcDbEntity
  8
0
100
AcDbLine
 10
37.42184019504591
 20
14.95
 30
-1.5
 11
37.42184019504591
 21
14.95
 31
0.0
  0
LINE
  5
22B
330
17
100
AcDbEntity
  8
0
100
AcDbLine
 10
80.40661272460969
 20
8.950000000000005
 30
-1.5000000000000009
 11
75.40661272460969
 21
14.950000000000005
 31
-1.5000000000000009
  0
LINE
  5
22C
330
17
100
AcDbEntity
  8
0
100
AcDbLine
 10
80.40661272460967
 20
8.95
 30
-1.5
 11
80.40661272460967
 21
8.95
 31
0.0
  0
LINE
  5
22D
330
17
100
AcDbEntity
  8
0
100
AcDbLine
 10
80.40661272460969
 20
8.950000000000005
 30
-8.881784197001252e-16
 11
75.40661272460969
 21
14.950000000000005
 31
-8.881784197001252e-16
  0
LINE
  5
22E
330
17
100
AcDbEntity
  8
0
100
AcDbLine
 10
75.40661272460967
 20
14.95
 30
-1.5
 11
75.40661272460967
 21
14.95
 31
0.0
  0
LINE
  5
22F
330
17
100
AcDbEntity
  8
0
100
AcDbLine
 10
80.40661272460967
 20
8.95
 30
-1.5
 11
80.40661272460967
 21
-8.950000000000003
 31
-1.5
  0
LINE
  5
230
330
17
100
AcDbEntity
  8
0
100
AcDbLine
 10
80.40661272460967
 20
-8.95
 30
-1.5
 11
80.40661272460967
 21
-8.95
 31
0.0
  0
LINE
  5
231
330
17
100
AcDbEntity
  8
0
100
AcDbLine
 10
80.40661272460967
 20
8.95
 30
0.0
 11
80.40661272460967
 21
-8.950000000000003
 31
0.0
  0
LINE
  5
232
330
17
100
AcDbEntity
  8
0
100
AcDbLine
 10
80.40661272460967
 20
8.95
 30
-1.5
 11
80.40661272460967
 21
8.95
 31
0.0
  0
LINE
  5
233
330
17
100
AcDbEntity
  8
0
100
AcDbLine
 10
80.40661272460969
 20
-8.95
 30
-1.5000000000000013
 11
80.04711611520679
 21
-14.075963035737852
 31
-1.5000000000000013
  0
LINE
  5
234
330
17
100
AcDbEntity
  8
0
100
AcDbLine
 10
80.04711611520678
 20
-14.07596303573785
 30
-1.5
 11
80.04711611520678
 21
-14.07596303573785
 31
0.0
  0
LINE
  5
235
330
17
100
AcDbEntity
  8
0
100
AcDbLine
 10
80.40661272460969
 20
-8.95
 30
-8.881784197001252e-16
 11
80.04711611520679
 21
-14.075963035737852
 31
-8.881784197001252e-16
  0
LINE
  5
236
330
17
100
AcDbEntity
  8
0
100
AcDbLine
 10
80.40661272460967
 20
-8.95
 30
-1.5
 11
80.40661272460967
 21
-8.95
 31
0.0
  0
LINE
  5
237
330
17
100
AcDbEntity
  8
0
100
AcDbLine
 10
80.04711611520678
 20
-14.07596303573785
 30
-1.5
 11
77.56536072180008
 21
-31.46262893914002
 31
-1.5
  0
LINE
  5
238
330
17
100
AcDbEntity
  8
0
100
AcDbLine
 10
77.56536072180008
 20
-31.462628939140018
 30
-1.5
 11
77.56536072180008
 21
-31.462628939140018
 31
0.0
  0
LINE
  5
239
330
17
100
AcDbEntity
  8
0
100
AcDbLine
 10
80.04711611520678
 20
-14.07596303573785
 30
0.0
 11
77.56536072180008
 21
-31.46262893914002
 31
0.0
  0
LINE
  5
23A
330
17
100
AcDbEntity
  8
0
100
AcDbLine
 10
80.04711611520678
 20
-14.07596303573785
 30
-1.5
 11
80.04711611520678
 21
-14.07596303573785
 31
0.0
  0
LINE
  5
23B
330
17
100
AcDbEntity
  8
0
100
AcDbLine
 10
77.56536072180008
 20
-31.462628939140018
 30
-1.5
 11
76.89357712521694
 21
-34.50712131513302
 31
-1.5
  0
LINE
  5
23C
330
17
100
AcDbEntity
  8
0
100
AcDbLine
 10
76.89357712521694
 20
-34.50712131513302
 30
-1.5000000000000004
 11
76.89357712521694
 21
-34.50712131513302
 31
0.0
  0
LINE
  5
23D
330
17
100
AcDbEntity
  8
0
100
AcDbLine
 10
77.56536072180008
 20
-31.462628939140018
 30
0.0
 11
76.89357712521694
 21
-34.50712131513302
 31
0.0
  0
LINE
  5
23E
330
17
100
AcDbEntity
  8
0
100
AcDbLine
 10
77.56536072180008
 20
-31.462628939140018
 30
-1.5
 11
77.56536072180008
 21
-31.462628939140018
 31
0.0
  0
ARC
  5
23F
330
17
100
AcDbEntity
  8
0
100
AcDbCircle
 10
76.16417818121295
 20
-38.083497276049606
 30
-1.5
 40
3.649998333333333
100
AcDbArc
 50
-281.52733533343167
 51
-110.39876386102253
  0
LINE
  5
240
330
17
100
AcDbEntity
  8
0
100
AcDbLine
 10
74.89196450829206
 20
-41.50460239044894
 30
-1.4999999999999996
 11
74.89196450829206
 21
-41.50460239044894
 31
0.0
  0
ARC
  5
241
330
17
100
AcDbEntity
  8
0
100
AcDbCircle
 10
76.16417818121295
 20
-38.083497276049606
 30
0.0
 40
3.649998333333333
100
AcDbArc
 50
-281.52733533343167
 51
-110.39876386102253
  0
LINE
  5
242
330
17
100
AcDbEntity
  8
0
100
AcDbLine
 10
76.89357712521694
 20
-34.50712131513302
 30
-1.5000000000000004
 11
76.89357712521694
 21
-34.50712131513302
 31
0.0
  0
LINE
  5
243
330
17
100
AcDbEntity
  8
0
100
AcDbLine
 10
74.89196450829209
 20
-41.504602390448945
 30
-1.5
 11
71.71698641015023
 21
-51.827727900301134
 31
-1.5
  0
LINE
  5
244
330
17
100
AcDbEntity
  8
0
100
AcDbLine
 10
71.71698641015026
 20
-51.827727900301134
 30
-1.5
 11
71.71698641015026
 21
-51.827727900301134
 31
0.0
  0
LINE
  5
245
330
17
100
AcDbEntity
  8
0
100
AcDbLine
 10
74.89196450829209
 20
-41.504602390448945
 30
0.0
 11
71.71698641015023
 21
-51.827727900301134
 31
0.0
  0
LINE
  5
246
330
17
100
AcDbEntity
  8
0
100
AcDbLine
 10
74.89196450829206
 20
-41.50460239044894
 30
-1.4999999999999996
 11
74.89196450829206
 21
-41.50460239044894
 31
0.0
  0
LINE
  5
247
330
17
100
AcDbEntity
  8
0
100
AcDbLine
 10
71.71698641015026
 20
-51.92772790030113
 30
-1.5
 11
71.71698641015026
 21
-51.827727900301134
 31
-1.5
  0
LINE
  5
248
330
17
100
AcDbEntity
  8
0
100
AcDbLine
 10
71.71698641015026
 20
-51.92772790030113
 30
-1.5
 11
71.71698641015026
 21
-51.92772790030113
 31
0.0
  0
LINE
  5
249
330
17
100
AcDbEntity
  8
0
100
AcDbLine
 10
71.71698641015026
 20
-51.92772790030113
 30
0.0
 11
71.71698641015026
 21
-51.827727900301134
 31
0.0
  0
LINE
  5
24A
330
17
100
AcDbEntity
  8
0
100
AcDbLine
 10
71.71698641015026
 20
-51.827727900301134
 30
-1.5
 11
71.71698641015026
 21
-51.827727900301134
 31
0.0
  0
LINE
  5
24B
330
17
100
AcDbEntity
  8
0
100
AcDbLine
 10
72.44090398370561
 20
-58.0743305326241
 30
-1.5
 11
71.71698641015026
 21
-51.927727900301136
 31
-1.5
  0
LINE
  5
24C
330
17
100
AcDbEntity
  8
0
100
AcDbLine
 10
72.44090398370561
 20
-58.07433053262409
 30
-1.5
 11
72.44090398370561
 21
-58.07433053262409
 31
0.0
  0
LINE
  5
24D
330
17
100
AcDbEntity
  8
0
100
AcDbLine
 10
72.44090398370561
 20
-58.0743305326241
 30
0.0
 11
71.71698641015026
 21
-51.927727900301136
 31
0.0
  0
LINE
  5
24E
330
17
100
AcDbEntity
  8
0
100
AcDbLine
 10
71.71698641015026
 20
-51.92772790030113
 30
-1.5
 11
71.71698641015026
 21
-51.92772790030113
 31
0.0
  0
LINE
  5
24F
330
17
100
AcDbEntity
  8
0
100
AcDbLine
 10
73.92790968417751
 20
-59.62596590049307
 30
-1.5
 11
72.44090398370561
 21
-58.074330532624096
 31
-1.5
  0
LINE
  5
250
330
17
100
AcDbEntity
  8
0
100
AcDbLine
 10
73.92790968417751
 20
-59.625965900493064
 30
-1.5
 11
73.92790968417751
 21
-59.625965900493064
 31
0.0
  0
LINE
  5
251
330
17
100
AcDbEntity
  8
0
100
AcDbLine
 10
73.92790968417751
 20
-59.62596590049307
 30
0.0
 11
72.44090398370561
 21
-58.074330532624096
 31
0.0
  0
LINE
  5
252
330
17
100
AcDbEntity
  8
0
100
AcDbLine
 10
72.44090398370561
 20
-58.07433053262409
 30
-1.5
 11
72.44090398370561
 21
-58.07433053262409
 31
0.0
  0
LINE
  5
253
330
17
100
AcDbEntity
  8
0
100
AcDbLine
 10
73.92790968417751
 20
-59.62596590049307
 30
-1.5
 11
73.9973777173397
 21
-59.67460794097785
 31
-1.5
  0
LINE
  5
254
330
17
100
AcDbEntity
  8
0
100
AcDbLine
 10
73.9973777173397
 20
-59.674607940977836
 30
-1.5
 11
73.9973777173397
 21
-59.674607940977836
 31
0.0
  0
LINE
  5
255
330
17
100
AcDbEntity
  8
0
100
AcDbLine
 10
73.92790968417751
 20
-59.62596590049307
 30
0.0
 11
73.9973777173397
 21
-59.67460794097785
 31
0.0
  0
LINE
  5
256
330
17
100
AcDbEntity
  8
0
100
AcDbLine
 10
73.92790968417751
 20
-59.625965900493064
 30
-1.5
 11
73.92790968417751
 21
-59.625965900493064
 31
0.0
  0
LINE
  5
257
330
17
100
AcDbEntity
  8
0
100
AcDbLine
 10
73.99737771733972
 20
-59.67460794097785
 30
-1.5000000000000009
 11
75.56863719210551
 21
-58.460308729954406
 31
-1.5000000000000009
  0
LINE
  5
258
330
17
100
AcDbEntity
  8
0
100
AcDbLine
 10
75.5686371921055
 20
-58.46030872995439
 30
-1.5
 11
75.5686371921055
 21
-58.46030872995439
 31
0.0
  0
LINE
  5
259
330
17
100
AcDbEntity
  8
0
100
AcDbLine
 10
73.99737771733972
 20
-59.67460794097785
 30
-8.881784197001252e-16
 11
75.56863719210551
 21
-58.460308729954406
 31
-8.881784197001252e-16
  0
LINE
  5
25A
330
17
100
AcDbEntity
  8
0
100
AcDbLine
 10
73.9973777173397
 20
-59.674607940977836
 30
-1.5
 11
73.9973777173397
 21
-59.674607940977836
 31
0.0
  0
LINE
  5
25B
330
17
100
AcDbEntity
  8
0
100
AcDbLine
 10
76.97551724947492
 20
-60.17581472324936
 30
-1.5
 11
75.5686371921055
 21
-58.46030872995439
 31
-1.5
  0
LINE
  5
25C
330
17
100
AcDbEntity
  8
0
100
AcDbLine
 10
76.97551724947492
 20
-60.17581472324936
 30
-1.5
 11
76.97551724947492
 21
-60.17581472324936
 31
0.0
  0
LINE
  5
25D
330
17
100
AcDbEntity
  8
0
100
AcDbLine
 10
76.97551724947492
 20
-60.17581472324936
 30
0.0
 11
75.5686371921055
 21
-58.46030872995439
 31
0.0
  0
LINE
  5
25E
330
17
100
AcDbEntity
  8
0
100
AcDbLine
 10
75.5686371921055
 20
-58.46030872995439
 30
-1.5
 11
75.5686371921055
 21
-58.46030872995439
 31
0.0
  0
LINE
  5
25F
330
17
100
AcDbEntity
  8
0
100
AcDbLine
 10
86.90654432042297
 20
-68.50893587569347
 30
-1.5
 11
76.9755172494749
 21
-60.175814723249374
 31
-1.5
  0
LINE
  5
260
330
17
100
AcDbEntity
  8
0
100
AcDbLine
 10
86.90654432042297
 20
-68.50893587569347
 30
-1.5
 11
86.90654432042297
 21
-68.50893587569347
 31
0.0
  0
LINE
  5
261
330
17
100
AcDbEntity
  8
0
100
AcDbLine
 10
86.90654432042297
 20
-68.50893587569347
 30
0.0
 11
76.9755172494749
 21
-60.175814723249374
 31
0.0
  0
LINE
  5
262
330
17
100
AcDbEntity
  8
0
100
AcDbLine
 10
76.97551724947492
 20
-60.17581472324936
 30
-1.5
 11
76.97551724947492
 21
-60.17581472324936
 31
0.0
  0
LINE
  5
263
330
17
100
AcDbEntity
  8
0
100
AcDbLine
 10
86.90654432042297
 20
-68.50893587569345
 30
-1.5
 11
86.042769989384
 21
-75.02787107121488
 31
-1.5
  0
LINE
  5
264
330
17
100
AcDbEntity
  8
0
100
AcDbLine
 10
86.04276998938403
 20
-75.02787107121488
 30
-1.5
 11
86.04276998938403
 21
-75.02787107121488
 31
0.0
  0
LINE
  5
265
330
17
100
AcDbEntity
  8
0
100
AcDbLine
 10
86.90654432042297
 20
-68.50893587569345
 30
0.0
 11
86.042769989384
 21
-75.02787107121488
 31
0.0
  0
LINE
  5
266
330
17
100
AcDbEntity
  8
0
100
AcDbLine
 10
86.90654432042297
 20
-68.50893587569347
 30
-1.5
 11
86.90654432042297
 21
-68.50893587569347
 31
0.0
  0
LINE
  5
267
330
17
100
AcDbEntity
  8
0
100
AcDbLine
 10
86.04276998938404
 20
-75.02787107121489
 30
-1.5
 11
65.86350573663486
 21
-96.39401376192595
 31
-1.5
  0
LINE
  5
268
330
17
100
AcDbEntity
  8
0
100
AcDbLine
 10
65.86350573663486
 20
-96.39401376192595
 30
-1.5
 11
65.86350573663486
 21
-96.39401376192595
 31
0.0
  0
LINE
  5
269
330
17
100
AcDbEntity
  8
0
100
AcDbLine
 10
86.04276998938404
 20
-75.02787107121489
 30
0.0
 11
65.86350573663486
 21
-96.39401376192595
 31
0.0
  0
LINE
  5
26A
330
17
100
AcDbEntity
  8
0
100
AcDbLine
 10
86.04276998938403
 20
-75.02787107121488
 30
-1.5
 11
86.04276998938403
 21
-75.02787107121488
 31
0.0
  0
LINE
  5
26B
330
17
100
AcDbEntity
  8
0
100
AcDbLine
 10
58.583850472519295
 20
-98.07519450439464
 30
-1.4999999999999996
 11
65.86350573663486
 21
-96.39401376192596
 31
-1.4999999999999996
  0
LINE
  5
26C
330
17
100
AcDbEntity
  8
0
100
AcDbLine
 10
58.5838504725193
 20
-98.07519450439463
 30
-1.5
 11
58.5838504725193
 21
-98.07519450439463
 31
0.0
  0
LINE
  5
26D
330
17
100
AcDbEntity
  8
0
100
AcDbLine
 10
58.583850472519295
 20
-98.07519450439464
 30
0.0
 11
65.86350573663486
 21
-96.39401376192596
 31
0.0
  0
LINE
  5
26E
330
17
100
AcDbEntity
  8
0
100
AcDbLine
 10
65.86350573663486
 20
-96.39401376192595
 30
-1.5
 11
65.86350573663486
 21
-96.39401376192595
 31
0.0
  0
LINE
  5
26F
330
17
100
AcDbEntity
  8
0
100
AcDbLine
 10
58.4345665568443
 20
-97.9499304258113
 30
-1.5
 11
58.583850472519174
 21
-98.0751945043948
 31
-1.5
  0
LINE
  5
270
330
17
100
AcDbEntity
  8
0
100
AcDbLine
 10
58.4345665568443
 20
-97.94993042581132
 30
-1.5
 11
58.4345665568443
 21
-97.94993042581132
 31
0.0
  0
LINE
  5
271
330
17
100
AcDbEntity
  8
0
100
AcDbLine
 10
58.4345665568443
 20
-97.9499304258113
 30
0.0
 11
58.583850472519174
 21
-98.0751945043948
 31
0.0
  0
LINE
  5
272
330
17
100
AcDbEntity
  8
0
100
AcDbLine
 10
58.5838504725193
 20
-98.07519450439463
 30
-1.5
 11
58.5838504725193
 21
-98.07519450439463
 31
0.0
  0
ARC
  5
273
330
17
100
AcDbEntity
  8
0
100
AcDbCircle
 10
56.260934531241105
 20
-95.01772790030114
 30
-1.5
 40
3.649998333333333
100
AcDbArc
 50
-53.450582146498476
 51
153.4505821464966
  0
LINE
  5
274
330
17
100
AcDbEntity
  8
0
100
AcDbLine
 10
52.9958315105523
 20
-93.3862898543966
 30
-1.5
 11
52.9958315105523
 21
-93.3862898543966
 31
0.0
  0
ARC
  5
275
330
17
100
AcDbEntity
  8
0
100
AcDbCircle
 10
56.260934531241105
 20
-95.01772790030114
 30
0.0
 40
3.649998333333333
100
AcDbArc
 50
-53.450582146498476
 51
153.4505821464966
  0
LINE
  5
276
330
17
100
AcDbEntity
  8
0
100
AcDbLine
 10
58.4345665568443
 20
-97.94993042581132
 30
-1.5
 11
58.4345665568443
 21
-97.94993042581132
 31
0.0
  0
LINE
  5
277
330
17
100
AcDbEntity
  8
0
100
AcDbLine
 10
50.327815339815025
 20
-91.14755846955582
 30
-1.5
 11
52.995831510552314
 21
-93.38628985439658
 31
-1.5
  0
ARC
  5
278
330
17
100
AcDbEntity
  8
0
100
AcDbCircle
 10
56.260934531241105
 20
-95.01772790030114
 30
-1.5
 40
3.649998333333333
100
AcDbArc
 50
-53.450582146498476
 51
153.4505821464966
  0
LINE
  5
279
330
17
100
AcDbEntity
  8
0
100
AcDbLine
 10
58.4345665568443
 20
-97.9499304258113
 30
-1.5
 11
58.583850472519174
 21
-98.0751945043948
 31
-1.5
  0
LINE
  5
27A
330
17
100
AcDbEntity
  8
0
100
AcDbLine
 10
58.583850472519295
 20
-98.07519450439464
 30
-1.4999999999999996
 11
65.86350573663486
 21
-96.39401376192596
 31
-1.4999999999999996
  0
LINE
  5
27B
330
17
100
AcDbEntity
  8
0
100
AcDbLine
 10
86.04276998938404
 20
-75.02787107121489
 30
-1.5
 11
65.86350573663486
 21
-96.39401376192595
 31
-1.5
  0
LINE
  5
27C
330
17
100
AcDbEntity
  8
0
100
AcDbLine
 10
86.90654432042297
 20
-68.50893587569345
 30
-1.5
 11
86.042769989384
 21
-75.02787107121488
 31
-1.5
  0
LINE
  5
27D
330
17
100
AcDbEntity
  8
0
100
AcDbLine
 10
86.90654432042297
 20
-68.50893587569347
 30
-1.5
 11
76.9755172494749
 21
-60.175814723249374
 31
-1.5
  0
LINE
  5
27E
330
17
100
AcDbEntity
  8
0
100
AcDbLine
 10
76.97551724947492
 20
-60.17581472324936
 30
-1.5
 11
75.5686371921055
 21
-58.46030872995439
 31
-1.5
  0
LINE
  5
27F
330
17
100
AcDbEntity
  8
0
100
AcDbLine
 10
73.99737771733972
 20
-59.67460794097785
 30
-1.5000000000000009
 11
75.56863719210551
 21
-58.460308729954406
 31
-1.5000000000000009
  0
LINE
  5
280
330
17
100
AcDbEntity
  8
0
100
AcDbLine
 10
73.92790968417751
 20
-59.62596590049307
 30
-1.5
 11
73.9973777173397
 21
-59.67460794097785
 31
-1.5
  0
LINE
  5
281
330
17
100
AcDbEntity
  8
0
100
AcDbLine
 10
73.92790968417751
 20
-59.62596590049307
 30
-1.5
 11
72.44090398370561
 21
-58.074330532624096
 31
-1.5
  0
LINE
  5
282
330
17
100
AcDbEntity
  8
0
100
AcDbLine
 10
72.44090398370561
 20
-58.0743305326241
 30
-1.5
 11
71.71698641015026
 21
-51.927727900301136
 31
-1.5
  0
LINE
  5
283
330
17
100
AcDbEntity
  8
0
100
AcDbLine
 10
71.71698641015026
 20
-51.92772790030113
 30
-1.5
 11
71.71698641015026
 21
-51.827727900301134
 31
-1.5
  0
LINE
  5
284
330
17
100
AcDbEntity
  8
0
100
AcDbLine
 10
74.89196450829209
 20
-41.504602390448945
 30
-1.5
 11
71.71698641015023
 21
-51.827727900301134
 31
-1.5
  0
ARC
  5
285
330
17
100
AcDbEntity
  8
0
100
AcDbCircle
 10
76.16417818121295
 20
-38.083497276049606
 30
-1.5
 40
3.649998333333333
100
AcDbArc
 50
-281.52733533343167
 51
-110.39876386102253
  0
LINE
  5
286
330
17
100
AcDbEntity
  8
0
100
AcDbLine
 10
77.56536072180008
 20
-31.462628939140018
 30
-1.5
 11
76.89357712521694
 21
-34.50712131513302
 31
-1.5
  0
LINE
  5
287
330
17
100
AcDbEntity
  8
0
100
AcDbLine
 10
80.04711611520678
 20
-14.07596303573785
 30
-1.5
 11
77.56536072180008
 21
-31.46262893914002
 31
-1.5
  0
LINE
  5
288
330
17
100
AcDbEntity
  8
0
100
AcDbLine
 10
80.40661272460969
 20
-8.95
 30
-1.5000000000000013
 11
80.04711611520679
 21
-14.075963035737852
 31
-1.5000000000000013
  0
LINE
  5
289
330
17
100
AcDbEntity
  8
0
100
AcDbLine
 10
80.40661272460967
 20
8.95
 30
-1.5
 11
80.40661272460967
 21
-8.950000000000003
 31
-1.5
  0
LINE
  5
28A
330
17
100
AcDbEntity
  8
0
100
AcDbLine
 10
80.40661272460969
 20
8.950000000000005
 30
-1.5000000000000009
 11
75.40661272460969
 21
14.950000000000005
 31
-1.5000000000000009
  0
LINE
  5
28B
330
17
100
AcDbEntity
  8
0
100
AcDbLine
 10
75.40661272460967
 20
14.95
 30
-1.5
 11
37.42184019504591
 21
14.95
 31
-1.5
  0
LINE
  5
28C
330
17
100
AcDbEntity
  8
0
100
AcDbLine
 10
37.42184019504591
 20
14.949999999999998
 30
-1.5
 11
34.26719775632379
 21
17.77
 31
-1.5
  0
LINE
  5
28D
330
17
100
AcDbEntity
  8
0
100
AcDbLine
 10
34.26719775632379
 20
17.77
 30
-1.5
 11
23.120503769893737
 21
17.77
 31
-1.5
  0
LINE
  5
28E
330
17
100
AcDbEntity
  8
0
100
AcDbLine
 10
23.12050376989374
 20
17.77
 30
-1.5000000000000004
 11
18.5518030648211
 21
17.079836252664286
 31
-1.5000000000000004
  0
LINE
  5
28F
330
17
100
AcDbEntity
  8
0
100
AcDbLine
 10
18.551803064821097
 20
17.07983625266429
 30
-1.5
 11
18.18529471972569
 21
16.93349244887139
 31
-1.5
  0
LINE
  5
290
330
17
100
AcDbEntity
  8
0
100
AcDbLine
 10
15.200271654844286
 20
15.978721440852736
 30
-1.5000000000000004
 11
18.18529471972569
 21
16.933492448871394
 31
-1.5000000000000004
  0
LINE
  5
291
330
17
100
AcDbEntity
  8
0
100
AcDbLine
 10
12.901286202510018
 20
14.950000000000001
 30
-1.5
 11
15.20027165484429
 21
15.978721440852736
 31
-1.5
  0
LINE
  5
292
330
17
100
AcDbEntity
  8
0
100
AcDbLine
 10
12.901286202510018
 20
14.949999999999998
 30
-1.5
 11
9.935217957891732
 21
14.949999999999998
 31
-1.5
  0
LINE
  5
293
330
17
100
AcDbEntity
  8
0
100
AcDbLine
 10
-5.656422772075348
 20
13.106942043716304
 30
-1.4999999999999996
 11
9.935217957891732
 21
14.95
 31
-1.4999999999999996
  0
LINE
  5
294
330
17
100
AcDbEntity
  8
0
100
AcDbLine
 10
-6.667447275094654
 20
12.030811310275803
 30
-1.5000000000000009
 11
-5.656422772075344
 21
13.106942043716302
 31
-1.5000000000000009
  0
LINE
  5
295
330
17
100
AcDbEntity
  8
0
100
AcDbLine
 10
-6.667447275094654
 20
12.030811310275803
 30
-1.5000000000000004
 11
-11.09049753518129
 21
8.553508014026763
 31
-1.5000000000000004
  0
LINE
  5
296
330
17
100
AcDbEntity
  8
0
100
AcDbLine
 10
-11.090497535181287
 20
8.553508014026763
 30
-1.5
 11
-29.505622084168905
 21
6.998294220120538
 31
-1.5
  0
LINE
  5
297
330
17
100
AcDbEntity
  8
0
100
AcDbLine
 10
-29.50562208416891
 20
6.998294220120528
 30
-1.5
 11
-32.72519254195002
 21
2.95
 31
-1.5
  0
LINE
  5
298
330
17
100
AcDbEntity
  8
0
100
AcDbLine
 10
-32.72519254195002
 20
-0.7453937298940763
 30
-1.5
 11
-32.72519254195002
 21
2.949999999999999
 31
-1.5
  0
ARC
  5
299
330
17
100
AcDbEntity
  8
0
100
AcDbCircle
 10
-33.56094442740555
 20
-4.29842153998699
 30
-1.5
 40
3.649998333333333
100
AcDbArc
 50
-76.76337131081686
 51
76.76337131081685
  0
LINE
  5
29A
330
17
100
AcDbEntity
  8
0
100
AcDbLine
 10
-32.72519254195002
 20
-15.05
 30
-1.5
 11
-32.72519254195002
 21
-7.851449350079902
 31
-1.5
  0
LINE
  5
29B
330
17
100
AcDbEntity
  8
0
100
AcDbLine
 10
-32.72519254195
 20
-15.050000000000002
 30
-1.5
 11
-33.04164575746456
 21
-22.60605177047979
 31
-1.5
  0
LINE
  5
29C
330
17
100
AcDbEntity
  8
0
100
AcDbLine
 10
-33.041645757464565
 20
-22.60605177047979
 30
-1.5000000000000004
 11
-34.58082337072753
 21
-41.25747397002295
 31
-1.5000000000000004
  0
LINE
  5
29D
330
17
100
AcDbEntity
  8
0
100
AcDbLine
 10
-34.58082337072754
 20
-41.25747397002295
 30
-1.5000000000000004
 11
-34.6209344588877
 21
-41.58264769748355
 31
-1.5000000000000004
  0
LINE
  5
29E
330
17
100
AcDbEntity
  8
0
100
AcDbLine
 10
-35.308612048490794
 20
-49.44595985516872
 30
-1.5
 11
-34.620934458887696
 21
-41.58264769748356
 31
-1.5
  0
LINE
  5
29F
330
17
100
AcDbEntity
  8
0
100
AcDbLine
 10
-35.3086120484908
 20
-49.44595985516872
 30
-1.4999999999999996
 11
-35.688511472253886
 21
-52.562510997553964
 31
-1.4999999999999996
  0
ARC
  5
2A0
330
17
100
AcDbEntity
  8
0
100
AcDbCircle
 10
-37.7369656335012
 20
-55.58349153085844
 30
-1.5
 40
3.649998333333333
100
AcDbArc
 50
-69.7595852391193
 51
55.859749309644485
  0
LINE
  5
2A1
330
17
100
AcDbEntity
  8
0
100
AcDbLine
 10
-36.47421185068545
 20
-59.008099642353926
 30
-1.4999999999999996
 11
-37.09139440706821
 21
-64.0712318316632
 31
-1.4999999999999996
  0
LINE
  5
2A2
330
17
100
AcDbEntity
  8
0
100
AcDbLine
 10
-37.09139440707062
 20
-64.07123183166024
 30
-1.5
 11
-33.68630035215264
 21
-68.23057638522377
 31
-1.5
  0
LINE
  5
2A3
330
17
100
AcDbEntity
  8
0
100
AcDbLine
 10
-33.686300352152664
 20
-68.23057638522377
 30
-1.5
 11
-18.63345619339625
 21
-68.23057638522377
 31
-1.5
  0
LINE
  5
2A4
330
17
100
AcDbEntity
  8
0
100
AcDbLine
 10
-11.683877359947772
 20
-62.230576385223785
 30
-1.5000000000000004
 11
-18.633456193396245
 21
-68.23057638522378
 31
-1.5000000000000004
  0
LINE
  5
2A5
330
17
100
AcDbEntity
  8
0
100
AcDbLine
 10
5.607713093225697
 20
-62.23057638522378
 30
-1.5
 11
-11.683877359947777
 21
-62.23057638522378
 31
-1.5
  0
LINE
  5
2A6
330
17
100
AcDbEntity
  8
0
100
AcDbLine
 10
5.607713093225692
 20
-62.230576385223785
 30
-1.5000000000000013
 11
18.158806050693855
 21
-82.64530171256192
 31
-1.5000000000000013
  0
LINE
  5
2A7
330
17
100
AcDbEntity
  8
0
100
AcDbLine
 10
18.158806050693844
 20
-82.6453017125619
 30
-1.5
 11
32.401065990962294
 21
-85.15659640629457
 31
-1.5
  0
LINE
  5
2A8
330
17
100
AcDbEntity
  8
0
100
AcDbLine
 10
32.833672948343
 20
-84.37426192501962
 30
-1.5
 11
32.401065990962294
 21
-85.15659640629457
 31
-1.5
  0
LINE
  5
2A9
330
17
100
AcDbEntity
  8
0
100
AcDbLine
 10
47.850365848744595
 20
-91.37666082463869
 30
-1.5000000000000009
 11
32.833672948343015
 21
-84.37426192501962
 31
-1.5000000000000009
  0
LINE
  5
2AA
330
17
100
AcDbEntity
  8
0
100
AcDbLine
 10
47.850365848744595
 20
-91.37666082463866
 30
-1.5
 11
50.32781533981503
 21
-91.14755846955579
 31
-1.5
  0
ENDSEC
  0
SECTION
  2
OBJECTS
  0
DICTIONARY
  5
A
330
0
100
AcDbDictionary
280
0
281
1
  3
ACAD_COLOR
350
B
  3
ACAD_GROUP
350
C
  3
ACAD_LAYOUT
350
D
  3
ACAD_MATERIAL
350
E
  3
ACAD_MLEADERSTYLE
350
F
  3
ACAD_MLINESTYLE
350
10
  3
ACAD_PLOTSETTINGS
350
11
  3
ACAD_PLOTSTYLENAME
350
12
  3
ACAD_SCALELIST
350
14
  3
ACAD_TABLESTYLE
350
15
  3
ACAD_VISUALSTYLE
350
16
  3
EZDXF_META
350
2D
  0
DICTIONARY
  5
B
330
A
100
AcDbDictionary
280
0
281
1
  0
DICTIONARY
  5
C
330
A
100
AcDbDictionary
280
0
281
1
  0
DICTIONARY
  5
D
330
A
100
AcDbDictionary
280
0
281
1
  3
Model
350
1A
  3
Layout1
350
1E
  0
DICTIONARY
  5
E
330
A
100
AcDbDictionary
280
0
281
1
  3
ByBlock
350
1F
  3
ByLayer
350
20
  3
Global
350
21
  0
DICTIONARY
  5
F
330
A
100
AcDbDictionary
280
0
281
1
  3
Standard
350
2C
  0
DICTIONARY
  5
10
330
A
100
AcDbDictionary
280
0
281
1
  3
Standard
350
22
  0
DICTIONARY
  5
11
330
A
100
AcDbDictionary
280
0
281
1
  0
ACDBDICTIONARYWDFLT
  5
12
330
A
100
AcDbDictionary
280
0
281
1
  3
Normal
350
13
100
AcDbDictionaryWithDefault
340
13
  0
ACDBPLACEHOLDER
  5
13
330
12
  0
DICTIONARY
  5
14
330
A
100
AcDbDictionary
280
0
281
1
  0
DICTIONARY
  5
15
330
A
100
AcDbDictionary
280
0
281
1
  0
DICTIONARY
  5
16
330
A
100
AcDbDictionary
280
0
281
1
  0
LAYOUT
  5
1A
330
D
100
AcDbPlotSettings
  1

  2
Adobe PDF
  4
A3
  6

 40
7.5
 41
20.0
 42
7.5
 43
20.0
 44
420.0
 45
297.0
 46
0.0
 47
0.0
 48
0.0
 49
0.0
140
0.0
141
0.0
142
1.0
143
1.0
 70
1024
 72
1
 73
0
 74
5
  7

 75
16
 76
0
 77
2
 78
300
147
1.0
148
0.0
149
0.0
100
AcDbLayout
  1
Model
 70
1
 71
0
 10
0.0
 20
0.0
 11
420.0
 21
297.0
 12
0.0
 22
0.0
 32
0.0
 14
1e+20
 24
1e+20
 34
1e+20
 15
-1e+20
 25
-1e+20
 35
-1e+20
146
0.0
 13
0.0
 23
0.0
 33
0.0
 16
1.0
 26
0.0
 36
0.0
 17
0.0
 27
1.0
 37
0.0
 76
1
330
17
  0
LAYOUT
  5
1E
330
D
100
AcDbPlotSettings
  1

  2
Adobe PDF
  4
A3
  6

 40
7.5
 41
20.0
 42
7.5
 43
20.0
 44
420.0
 45
297.0
 46
0.0
 47
0.0
 48
0.0
 49
0.0
140
0.0
141
0.0
142
1.0
143
1.0
 70
0
 72
1
 73
0
 74
5
  7

 75
16
 76
0
 77
2
 78
300
147
1.0
148
0.0
149
0.0
100
AcDbLayout
  1
Layout1
 70
1
 71
1
 10
0.0
 20
0.0
 11
420.0
 21
297.0
 12
0.0
 22
0.0
 32
0.0
 14
1e+20
 24
1e+20
 34
1e+20
 15
-1e+20
 25
-1e+20
 35
-1e+20
146
0.0
 13
0.0
 23
0.0
 33
0.0
 16
1.0
 26
0.0
 36
0.0
 17
0.0
 27
1.0
 37
0.0
 76
1
330
1B
  0
MATERIAL
  5
1F
102
{ACAD_REACTORS
330
E
102
}
330
E
100
AcDbMaterial
  1
ByBlock
  2

 70
0
 40
1.0
 71
1
 41
1.0
 91
-1023410177
 42
1.0
 72
1
  3

 73
1
 74
1
 75
1
 44
0.5
 73
0
 45
1.0
 46
1.0
 77
1
  4

 78
1
 79
1
170
1
 48
1.0
171
1
  6

172
1
173
1
174
1
140
1.0
141
1.0
175
1
  7

176
1
177
1
178
1
143
1.0
179
1
  8

270
1
271
1
272
1
145
1.0
146
1.0
273
1
  9

274
1
275
1
276
1
 42
1.0
 72
1
  3

 73
1
 74
1
 75
1
 94
63
  0
MATERIAL
  5
20
102
{ACAD_REACTORS
330
E
102
}
330
E
100
AcDbMaterial
  1
ByLayer
  2

 70
0
 40
1.0
 71
1
 41
1.0
 91
-1023410177
 42
1.0
 72
1
  3

 73
1
 74
1
 75
1
 44
0.5
 73
0
 45
1.0
 46
1.0
 77
1
  4

 78
1
 79
1
170
1
 48
1.0
171
1
  6

172
1
173
1
174
1
140
1.0
141
1.0
175
1
  7

176
1
177
1
178
1
143
1.0
179
1
  8

270
1
271
1
272
1
145
1.0
146
1.0
273
1
  9

274
1
275
1
276
1
 42
1.0
 72
1
  3

 73
1
 74
1
 75
1
 94
63
  0
MATERIAL
  5
21
102
{ACAD_REACTORS
330
E
102
}
330
E
100
AcDbMaterial
  1
Global
  2

 70
0
 40
1.0
 71
1
 41
1.0
 91
-1023410177
 42
1.0
 72
1
  3

 73
1
 74
1
 75
1
 44
0.5
 73
0
 45
1.0
 46
1.0
 77
1
  4

 78
1
 79
1
170
1
 48
1.0
171
1
  6

172
1
173
1
174
1
140
1.0
141
1.0
175
1
  7

176
1
177
1
178
1
143
1.0
179
1
  8

270
1
271
1
272
1
145
1.0
146
1.0
273
1
  9

274
1
275
1
276
1
 42
1.0
 72
1
  3

 73
1
 74
1
 75
1
 94
63
  0
MLINESTYLE
  5
22
102
{ACAD_REACTORS
330
10
102
}
330
10
100
AcDbMlineStyle
  2
Standard
 70
0
  3

 62
256
 51
90.0
 52
90.0
 71
2
 49
0.5
 62
256
  6
BYLAYER
 49
-0.5
 62
256
  6
BYLAYER
  0
MLEADERSTYLE
  5
2C
102
{ACAD_REACTORS
330
F
102
}
330
F
100
AcDbMLeaderStyle
179
2
170
2
171
1
172
0
 90
2
 40
0.0
 41
0.0
173
1
 91
-1056964608
 92
-2
290
1
 42
2.0
291
1
 43
8.0
  3
Standard
 44
4.0
300

342
29
174
1
175
1
176
0
178
1
 93
-1056964608
 45
4.0
292
0
297
0
 46
4.0
 94
-1056964608
 47
1.0
 49
1.0
140
1.0
294
1
141
0.0
177
0
142
1.0
295
0
296
0
143
3.75
271
0
272
9
273
9
  0
DICTIONARY
  5
2D
330
A
100
AcDbDictionary
281
1
  3
CREATED_BY_EZDXF
350
2E
  3
WRITTEN_BY_EZDXF
350
2AE
  0
DICTIONARYVAR
  5
2E
330
2D
100
DictionaryVariables
280
0
  1
1.2.0 @ 2024-05-08T03:14:58.568040+00:00
  0
DICTIONARYVAR
  5
2AE
330
2D
100
DictionaryVariables
280
0
  1
1.2.0 @ 2024-05-08T03:14:58.603236+00:00
  0
ENDSEC
  0
EOF
